{"glyphs":{"0":{"ha":533,"x_min":8,"x_max":525,"o":"m 8 729 l 8 244 q 74 52 8 118 q 263 -14 139 -14 q 457 53 389 -14 q 525 244 525 119 l 525 729 q 457 919 525 853 q 263 986 389 986 q 74 921 139 986 q 8 729 8 856 m 258 17 l 258 956 q 267 978 258 978 q 275 956 275 978 l 275 17 q 267 -6 275 -6 q 258 17 258 -6 "},"1":{"ha":324,"x_min":8,"x_max":315,"o":"m 65 0 l 315 0 l 315 972 l 8 972 l 8 964 l 64 964 l 65 961 l 65 0 "},"2":{"ha":535,"x_min":10,"x_max":526,"o":"m 10 729 l 10 569 l 260 569 l 260 956 q 268 978 260 978 q 276 956 276 978 l 276 614 q 275 581 276 593 q 263 556 274 568 q 231 531 253 544 q 167 493 208 517 l 129 472 q 71 431 94 453 q 34 381 47 410 q 15 310 21 351 q 10 207 10 268 l 10 0 l 526 0 l 526 8 l 260 8 l 260 167 q 262 232 260 208 q 273 272 264 256 q 302 302 282 289 q 358 336 322 315 l 403 361 q 463 417 439 382 q 501 498 488 451 q 521 600 515 544 q 526 717 526 656 l 526 729 q 461 921 526 856 q 272 986 396 986 q 78 919 146 986 q 10 729 10 853 "},"3":{"ha":533,"x_min":8,"x_max":525,"o":"m 275 956 l 275 582 q 274 538 275 556 q 266 509 272 519 q 247 494 260 499 q 211 490 235 490 l 188 490 l 188 482 l 211 482 q 247 478 235 482 q 266 463 260 474 q 274 435 272 453 q 275 390 275 417 l 275 17 q 267 -6 275 -6 q 258 17 258 -6 l 258 333 l 8 333 l 8 243 q 76 53 8 119 q 271 -14 144 -14 q 460 51 394 -14 q 525 243 525 117 l 525 256 q 471 428 525 369 q 317 486 417 486 l 317 489 q 471 546 417 489 q 525 717 525 603 l 525 729 q 460 921 525 856 q 271 986 394 986 q 76 919 144 986 q 8 729 8 853 l 8 639 l 258 639 l 258 956 q 267 978 258 978 q 275 956 275 978 "},"4":{"ha":533,"x_min":8,"x_max":525,"o":"m 525 972 l 275 972 l 275 364 l 258 364 l 258 972 l 8 972 l 8 356 l 275 356 l 275 0 l 525 0 l 525 972 "},"5":{"ha":533,"x_min":8,"x_max":525,"o":"m 8 972 l 8 417 l 258 417 l 258 581 q 267 600 258 600 q 275 581 275 600 l 275 17 q 267 -6 275 -6 q 258 17 258 -6 l 258 394 l 8 394 l 8 244 q 76 53 8 119 q 271 -14 144 -14 q 460 52 394 -14 q 525 244 525 118 l 525 465 q 510 545 525 511 q 472 601 496 579 q 419 635 449 624 q 358 646 389 646 q 261 610 300 646 l 258 610 l 258 964 l 497 964 l 497 972 l 8 972 "},"6":{"ha":533,"x_min":8,"x_max":525,"o":"m 275 613 l 525 613 l 525 729 q 457 919 525 853 q 263 986 389 986 q 74 921 139 986 q 8 729 8 856 l 8 244 q 74 52 8 118 q 263 -14 139 -14 q 457 53 389 -14 q 525 244 525 119 l 525 411 q 480 551 525 506 q 371 596 435 596 q 317 588 344 596 q 263 563 289 581 l 260 563 l 260 956 q 268 978 260 978 q 275 956 275 978 l 275 613 m 260 15 l 260 533 q 267 554 260 554 q 275 533 275 554 l 275 17 q 267 -6 275 -6 q 260 15 260 -6 "},"7":{"ha":507,"x_min":8,"x_max":497,"o":"m 8 972 l 8 964 l 235 964 l 238 963 l 40 0 l 297 0 l 497 964 l 497 972 l 8 972 "},"8":{"ha":533,"x_min":8,"x_max":525,"o":"m 8 743 l 8 711 q 21 632 8 668 q 53 569 33 596 q 99 528 74 543 q 147 514 124 514 l 147 511 q 99 496 124 511 q 53 450 74 481 q 21 375 33 419 q 8 274 8 331 l 8 244 q 67 52 8 118 q 263 -14 126 -14 q 462 53 399 -14 q 525 244 525 119 l 525 274 q 510 379 525 335 q 473 453 496 424 q 423 497 450 482 q 372 511 396 511 l 372 514 q 423 528 396 514 q 473 569 450 543 q 510 632 496 596 q 525 711 525 668 l 525 743 q 462 921 525 856 q 261 986 399 986 q 67 923 126 986 q 8 743 8 860 m 258 539 l 258 956 q 267 978 258 978 q 275 956 275 978 l 275 539 q 267 517 275 517 q 258 539 258 517 m 258 17 l 258 486 q 267 508 258 508 q 275 486 275 508 l 275 17 q 267 -6 275 -6 q 258 17 258 -6 "},"9":{"ha":533,"x_min":8,"x_max":525,"o":"m 258 360 l 8 360 l 8 243 q 76 53 8 119 q 271 -14 144 -14 q 460 51 394 -14 q 525 243 525 117 l 525 728 q 460 920 525 854 q 271 986 394 986 q 76 919 144 986 q 8 728 8 853 l 8 561 q 53 422 8 467 q 163 376 99 376 q 217 385 189 376 q 271 410 244 393 l 274 410 l 274 17 q 265 -6 274 -6 q 258 17 258 -6 l 258 360 m 275 957 l 275 439 q 267 418 275 418 q 258 439 258 418 l 258 956 q 267 978 258 978 q 275 957 275 978 "},"\u0000":{"ha":0,"x_min":0,"x_max":0,"o":""},"\r":{"ha":347,"x_min":0,"x_max":0,"o":""}," ":{"ha":222,"x_min":0,"x_max":0,"o":""},"F":{"ha":372,"x_min":8,"x_max":369,"o":"m 258 964 l 369 964 l 369 972 l 8 972 l 8 0 l 258 0 l 258 482 l 363 482 l 363 490 l 258 490 l 258 964 "},"G":{"ha":533,"x_min":8,"x_max":525,"o":"m 258 503 l 258 956 q 267 978 258 978 q 275 956 275 978 l 275 556 l 525 556 l 525 729 q 457 919 525 853 q 263 986 389 986 q 74 921 139 986 q 8 729 8 856 l 8 244 q 26 123 8 172 q 72 43 43 74 q 135 -1 100 13 q 206 -14 171 -14 q 297 8 256 -14 q 353 64 339 31 l 356 64 l 356 0 l 525 0 l 525 503 l 258 503 m 258 32 l 258 494 l 275 494 l 275 32 q 267 10 275 10 q 258 32 258 10 "},"H":{"ha":533,"x_min":8,"x_max":525,"o":"m 525 972 l 275 972 l 275 503 l 258 503 l 258 972 l 8 972 l 8 0 l 258 0 l 258 494 l 275 494 l 275 0 l 525 0 l 525 972 "},"I":{"ha":267,"x_min":8,"x_max":258,"o":"m 258 972 l 8 972 l 8 0 l 258 0 l 258 972 "},"J":{"ha":533,"x_min":8,"x_max":525,"o":"m 525 972 l 275 972 l 275 17 q 267 -6 275 -6 q 258 17 258 -6 l 258 465 l 8 465 l 8 244 q 72 52 8 118 q 261 -14 135 -14 q 457 53 389 -14 q 525 244 525 119 l 525 972 "},"K":{"ha":554,"x_min":8,"x_max":550,"o":"m 258 532 l 258 972 l 8 972 l 8 0 l 258 0 l 258 524 l 261 524 l 300 0 l 550 0 l 475 528 l 536 972 l 286 972 l 261 532 l 258 532 "},"L":{"ha":374,"x_min":8,"x_max":369,"o":"m 258 972 l 8 972 l 8 0 l 369 0 l 369 8 l 258 8 l 258 972 "},"M":{"ha":614,"x_min":8,"x_max":606,"o":"m 258 972 l 8 972 l 8 0 l 17 0 l 17 789 l 19 789 l 61 0 l 314 0 l 353 789 l 356 789 l 356 0 l 606 0 l 606 972 l 350 972 l 308 126 l 306 126 l 258 972 "},"N":{"ha":481,"x_min":8,"x_max":472,"o":"m 472 972 l 464 972 l 464 69 l 461 69 l 261 972 l 8 972 l 8 0 l 17 0 l 17 932 l 19 932 l 222 0 l 472 0 l 472 972 "},"O":{"ha":533,"x_min":8,"x_max":525,"o":"m 8 729 l 8 244 q 74 52 8 118 q 263 -14 139 -14 q 457 53 389 -14 q 525 244 525 119 l 525 729 q 457 919 525 853 q 263 986 389 986 q 74 921 139 986 q 8 729 8 856 m 258 17 l 258 956 q 267 978 258 978 q 275 956 275 978 l 275 17 q 267 -6 275 -6 q 258 17 258 -6 "},"P":{"ha":533,"x_min":8,"x_max":525,"o":"m 264 972 l 8 972 l 8 0 l 258 0 l 258 390 l 261 390 q 378 404 328 390 q 460 451 428 418 q 509 538 493 483 q 525 672 525 592 l 525 675 q 457 901 525 829 q 264 972 389 972 m 258 399 l 258 964 l 261 964 q 274 960 272 964 q 275 944 275 957 l 275 421 q 274 402 275 406 q 261 399 272 399 l 258 399 "},"Q":{"ha":533,"x_min":8,"x_max":525,"o":"m 8 729 l 8 244 q 53 77 8 140 q 182 -6 97 14 l 182 -37 q 194 -124 182 -90 q 231 -176 206 -157 q 294 -203 256 -196 q 383 -211 332 -211 l 472 -211 l 472 -203 l 458 -203 q 401 -197 424 -203 q 368 -176 379 -190 q 353 -141 357 -162 q 349 -89 349 -119 l 349 -4 q 479 80 433 17 q 525 244 525 143 l 525 729 q 457 919 525 853 q 263 986 389 986 q 74 921 139 986 q 8 729 8 856 m 258 17 l 258 956 q 267 978 258 978 q 275 956 275 978 l 275 17 q 267 -6 275 -6 q 258 17 258 -6 "},"R":{"ha":533,"x_min":8,"x_max":539,"o":"m 264 972 l 8 972 l 8 0 l 258 0 l 258 451 l 261 451 q 274 448 272 451 q 275 429 275 444 l 275 199 q 277 93 275 142 q 289 0 279 44 l 539 0 q 527 93 529 44 q 525 197 525 142 l 525 208 q 510 309 525 264 q 467 387 494 354 q 401 437 440 419 q 314 454 363 454 l 314 457 q 468 519 411 457 q 525 706 525 582 l 525 713 q 457 909 525 846 q 264 972 389 972 m 258 460 l 258 964 l 261 964 q 274 960 272 964 q 275 942 275 957 l 275 482 q 274 463 275 467 q 261 460 272 460 l 258 460 "},"S":{"ha":533,"x_min":8,"x_max":525,"o":"m 275 639 l 525 639 l 525 729 q 457 919 525 853 q 263 986 389 986 q 74 921 139 986 q 8 729 8 856 l 8 717 q 14 611 8 656 q 33 533 19 567 q 72 476 47 500 q 132 431 96 451 l 176 406 q 233 372 213 385 q 262 350 253 360 q 273 331 271 340 q 275 306 275 321 l 275 15 q 267 -6 275 -6 q 258 17 258 -6 l 258 333 l 8 333 l 8 244 q 73 52 8 118 q 263 -14 138 -14 q 457 53 389 -14 q 525 244 525 119 l 525 263 q 519 367 525 324 q 501 443 514 411 q 465 499 488 475 q 406 542 442 522 l 368 563 q 306 599 328 585 q 273 623 283 613 q 260 644 263 633 q 258 669 258 654 l 258 956 q 267 978 258 978 q 275 956 275 978 l 275 639 "},"T":{"ha":511,"x_min":6,"x_max":506,"o":"m 506 964 l 506 972 l 6 972 l 6 964 l 131 964 l 131 0 l 381 0 l 381 964 l 506 964 "},"U":{"ha":533,"x_min":8,"x_max":525,"o":"m 258 972 l 8 972 l 8 244 q 73 52 8 118 q 263 -14 138 -14 q 457 53 389 -14 q 525 244 525 119 l 525 972 l 275 972 l 275 17 q 267 -6 275 -6 q 258 17 258 -6 l 258 972 "},"V":{"ha":442,"x_min":4,"x_max":438,"o":"m 254 972 l 4 972 l 122 0 l 319 0 l 438 972 l 426 972 l 342 279 l 339 279 l 254 972 "},"W":{"ha":753,"x_min":4,"x_max":749,"o":"m 254 972 l 4 972 l 94 0 l 292 0 l 375 901 l 378 901 l 461 0 l 658 0 l 749 972 l 738 972 l 681 364 l 678 364 l 621 972 l 371 972 l 314 364 l 311 364 l 254 972 "},"X":{"ha":447,"x_min":4,"x_max":443,"o":"m 333 561 l 254 972 l 4 972 l 108 439 l 4 0 l 15 0 l 113 407 l 115 407 l 193 0 l 443 0 l 340 526 l 435 972 l 424 972 l 336 561 l 333 561 "},"Y":{"ha":407,"x_min":4,"x_max":403,"o":"m 253 972 l 4 972 l 78 397 l 78 0 l 329 0 l 329 397 l 403 972 l 392 972 l 326 461 l 324 461 l 253 972 "},"Z":{"ha":468,"x_min":4,"x_max":464,"o":"m 450 972 l 18 972 l 18 964 l 197 964 l 199 961 l 4 8 l 4 0 l 464 0 l 464 8 l 257 8 l 256 11 l 450 964 l 450 972 "},"a":{"ha":506,"x_min":8,"x_max":497,"o":"m 261 692 l 261 382 l 153 382 q 96 371 122 382 q 50 341 69 360 q 19 297 31 322 q 8 242 8 271 l 8 126 q 44 25 8 64 q 135 -14 79 -14 q 258 61 204 -14 l 261 61 l 261 0 l 497 0 l 497 483 q 431 658 497 594 q 250 722 364 722 q 72 659 136 722 q 8 483 8 596 l 8 404 l 244 404 l 244 692 q 253 714 244 714 q 261 692 261 714 m 261 374 l 261 75 q 251 68 257 68 q 244 79 244 68 l 244 363 q 251 374 244 374 l 261 374 "},"b":{"ha":506,"x_min":8,"x_max":497,"o":"m 8 1000 l 8 0 l 244 0 l 244 61 l 247 61 q 368 -14 301 -14 q 463 38 428 -14 q 497 178 497 89 l 497 540 q 464 674 497 626 q 371 722 431 722 q 247 647 301 722 l 244 647 l 244 1000 l 8 1000 m 244 75 l 244 633 q 254 640 249 640 q 261 629 261 640 l 261 82 q 254 68 261 68 q 244 75 249 68 "},"c":{"ha":506,"x_min":8,"x_max":497,"o":"m 244 17 l 244 692 q 253 714 244 714 q 261 692 261 714 l 261 414 l 497 414 l 497 483 q 431 658 497 594 q 250 722 364 722 q 72 659 136 722 q 8 483 8 596 l 8 225 q 72 49 8 113 q 250 -14 136 -14 q 431 50 364 -14 q 497 225 497 114 l 497 294 l 261 294 l 261 17 q 253 -6 261 -6 q 244 17 244 -6 "},"d":{"ha":506,"x_min":8,"x_max":497,"o":"m 261 0 l 497 0 l 497 1000 l 261 1000 l 261 674 l 258 675 q 203 710 235 699 q 135 722 171 722 q 44 685 79 722 q 8 560 8 647 l 8 199 q 17 99 8 140 q 40 33 25 58 q 76 -3 56 8 q 121 -14 97 -14 q 193 4 156 -14 q 258 49 231 22 l 261 49 l 261 0 m 261 661 l 261 61 q 251 54 257 54 q 244 67 244 54 l 244 657 q 251 668 244 668 q 261 661 257 668 "},"e":{"ha":506,"x_min":8,"x_max":497,"o":"m 497 294 l 261 294 l 261 17 q 253 -6 261 -6 q 244 17 244 -6 l 244 354 l 497 354 l 497 483 q 431 658 497 594 q 250 722 364 722 q 72 659 136 722 q 8 483 8 596 l 8 225 q 72 49 8 113 q 250 -14 136 -14 q 431 50 364 -14 q 497 225 497 114 l 497 294 m 244 363 l 244 692 q 253 714 244 714 q 261 692 261 714 l 261 363 l 244 363 "},"f":{"ha":390,"x_min":0,"x_max":390,"o":"m 56 767 l 56 708 l 0 708 l 0 700 l 56 700 l 56 0 l 292 0 l 292 700 l 390 700 l 390 708 l 292 708 l 292 894 q 307 963 292 943 q 354 982 322 982 q 371 981 363 982 q 390 979 379 981 l 390 986 q 319 997 353 993 q 253 1000 285 1000 q 172 990 208 1000 q 110 953 136 979 q 69 881 83 926 q 56 767 56 836 "},"g":{"ha":506,"x_min":8,"x_max":497,"o":"m 497 -81 l 497 708 l 261 708 l 261 647 l 258 647 q 135 722 204 722 q 42 674 75 722 q 8 540 8 626 l 8 178 q 43 38 8 89 q 138 -14 78 -14 q 258 61 204 -14 l 261 61 l 261 -258 q 253 -283 261 -283 q 244 -261 244 -283 l 244 -36 l 8 -36 l 8 -81 q 72 -236 8 -181 q 254 -292 136 -292 q 435 -237 372 -292 q 497 -81 497 -182 m 261 633 l 261 75 q 251 68 257 68 q 244 82 244 68 l 244 629 q 251 640 244 640 q 261 633 257 640 "},"h":{"ha":506,"x_min":8,"x_max":497,"o":"m 8 1000 l 8 0 l 244 0 l 244 633 q 254 640 249 640 q 261 629 261 640 l 261 0 l 497 0 l 497 540 q 487 624 497 589 q 459 681 476 658 q 419 713 442 703 q 371 722 396 722 q 306 704 335 722 q 247 647 276 686 l 244 647 l 244 1000 l 8 1000 "},"i":{"ha":256,"x_min":1,"x_max":254,"o":"m 1 861 q 35 776 1 803 q 128 749 69 749 q 220 776 186 749 q 254 861 254 803 q 219 947 254 919 q 126 974 185 974 q 35 947 68 974 q 1 861 1 919 m 246 708 l 10 708 l 10 0 l 246 0 l 246 708 "},"j":{"ha":254,"x_min":-56,"x_max":253,"o":"m 0 861 q 126 749 0 749 q 253 860 253 749 q 220 944 253 915 q 125 974 188 974 q 32 945 64 974 q 0 861 0 917 m 244 -60 l 244 708 l 8 708 l 8 -187 q 8 -217 8 -201 q 3 -244 7 -232 q -10 -265 -1 -257 q -36 -272 -19 -272 q -45 -272 -40 -272 q -56 -271 -50 -272 l -56 -279 q 10 -288 -21 -285 q 68 -292 40 -292 q 142 -281 110 -292 q 198 -245 175 -271 q 233 -174 221 -219 q 244 -60 244 -129 "},"k":{"ha":494,"x_min":8,"x_max":508,"o":"m 244 376 l 244 1000 l 8 1000 l 8 0 l 244 0 l 244 368 l 247 368 l 278 0 l 508 0 l 446 372 l 500 708 l 269 708 l 247 376 l 244 376 "},"l":{"ha":253,"x_min":8,"x_max":244,"o":"m 8 1000 l 8 0 l 244 0 l 244 1000 l 8 1000 "},"m":{"ha":758,"x_min":8,"x_max":750,"o":"m 8 708 l 8 0 l 244 0 l 244 633 q 254 640 249 640 q 261 629 261 640 l 261 0 l 497 0 l 497 540 q 494 585 497 564 q 488 624 492 606 q 507 640 503 640 q 514 629 514 640 l 514 0 l 750 0 l 750 540 q 710 675 750 628 q 615 722 669 722 q 548 703 582 722 q 483 647 514 685 l 479 647 q 433 705 463 688 q 371 722 404 722 q 308 704 335 722 q 250 647 281 686 l 244 647 l 244 708 l 8 708 "},"n":{"ha":506,"x_min":8,"x_max":497,"o":"m 8 708 l 8 0 l 244 0 l 244 633 q 254 640 249 640 q 261 629 261 640 l 261 0 l 497 0 l 497 540 q 487 624 497 589 q 459 681 476 658 q 419 713 442 703 q 371 722 396 722 q 306 704 335 722 q 247 647 278 686 l 244 647 l 244 708 l 8 708 "},"o":{"ha":506,"x_min":8,"x_max":497,"o":"m 8 483 l 8 225 q 69 53 8 121 q 250 -14 129 -14 q 357 4 311 -14 q 434 54 403 22 q 481 130 465 86 q 497 225 497 174 l 497 483 q 481 578 497 535 q 434 654 465 622 q 357 704 403 686 q 250 722 311 722 q 69 655 129 722 q 8 483 8 588 m 244 17 l 244 692 q 253 714 244 714 q 261 692 261 714 l 261 17 q 253 -6 261 -6 q 244 17 244 -6 "},"p":{"ha":506,"x_min":8,"x_max":497,"o":"m 244 708 l 8 708 l 8 -278 l 244 -278 l 244 75 l 247 76 q 314 7 285 28 q 375 -14 343 -14 q 465 38 432 -14 q 497 176 497 89 l 497 526 q 464 669 497 615 q 374 722 431 722 q 313 701 342 722 q 247 632 285 681 l 244 632 l 244 708 m 244 89 l 244 619 q 254 626 249 626 q 261 615 261 626 l 261 96 q 254 82 261 82 q 244 89 249 82 "},"q":{"ha":506,"x_min":8,"x_max":497,"o":"m 497 -278 l 497 708 l 261 708 l 261 633 l 258 633 q 193 701 222 681 q 132 722 164 722 q 42 669 75 722 q 8 526 8 615 l 8 176 q 41 38 8 89 q 131 -14 74 -14 q 192 7 164 -14 q 258 76 221 28 l 261 76 l 261 -278 l 497 -278 m 261 619 l 261 89 q 251 82 257 82 q 244 96 244 82 l 244 615 q 251 626 244 626 q 261 619 257 626 "},"r":{"ha":397,"x_min":8,"x_max":389,"o":"m 244 457 l 244 708 l 8 708 l 8 0 l 244 0 l 244 375 q 269 460 244 432 q 350 489 293 489 q 369 488 360 489 q 389 486 379 488 l 389 721 q 375 722 383 722 q 322 700 344 722 q 285 641 300 678 q 262 556 271 604 q 247 457 253 508 l 244 457 "},"s":{"ha":506,"x_min":8,"x_max":497,"o":"m 261 467 l 497 467 l 497 496 q 481 584 497 543 q 434 656 465 625 q 357 704 403 686 q 251 722 311 722 q 147 705 192 722 q 71 658 101 688 q 25 591 40 629 q 10 511 10 553 l 10 489 q 34 378 10 418 q 118 311 58 339 l 218 265 q 253 243 246 253 q 260 207 260 233 l 260 21 q 251 -4 260 -4 q 244 21 244 -4 l 244 242 l 8 242 l 8 214 q 24 125 8 167 q 69 52 39 83 q 144 3 100 21 q 249 -14 189 -14 q 355 3 308 -14 q 433 50 401 21 q 480 117 464 79 q 496 197 496 156 l 496 219 q 467 330 496 290 q 381 399 439 369 l 282 447 q 252 467 258 458 q 246 496 246 476 l 246 689 q 254 714 246 714 q 261 689 261 714 l 261 467 "},"t":{"ha":396,"x_min":0,"x_max":390,"o":"m 0 708 l 0 700 l 56 700 l 56 221 q 69 106 56 151 q 110 34 83 61 q 172 -3 136 7 q 253 -14 208 -14 q 319 -10 285 -14 q 390 0 353 -7 l 390 8 q 371 6 379 6 q 354 6 363 6 q 307 24 322 6 q 292 92 292 43 l 292 700 l 390 700 l 390 708 l 292 708 l 292 875 l 56 861 l 56 708 l 0 708 "},"u":{"ha":506,"x_min":8,"x_max":497,"o":"m 497 0 l 497 708 l 261 708 l 261 75 q 251 68 257 68 q 244 79 244 68 l 244 708 l 8 708 l 8 168 q 46 28 8 71 q 135 -14 83 -14 q 199 4 171 -14 q 260 61 228 22 l 261 61 l 261 0 l 497 0 "},"v":{"ha":383,"x_min":6,"x_max":378,"o":"m 242 708 l 6 708 l 101 0 l 282 0 l 378 708 l 369 708 l 307 247 l 304 247 l 242 708 "},"w":{"ha":692,"x_min":6,"x_max":686,"o":"m 242 708 l 6 708 l 88 0 l 268 0 l 344 660 l 347 660 l 424 0 l 604 0 l 686 708 l 678 708 l 629 289 l 626 289 l 578 708 l 342 708 l 293 289 l 290 289 l 242 708 "},"x":{"ha":400,"x_min":6,"x_max":394,"o":"m 310 411 l 249 708 l 13 708 l 89 339 l 6 0 l 14 0 l 92 314 l 94 314 l 158 0 l 394 0 l 315 383 l 389 708 l 381 708 l 313 411 l 310 411 "},"y":{"ha":506,"x_min":8,"x_max":497,"o":"m 497 -81 l 497 708 l 261 708 l 261 75 q 251 68 257 68 q 244 79 244 68 l 244 708 l 8 708 l 8 168 q 46 28 8 71 q 135 -14 83 -14 q 199 4 171 -14 q 260 61 228 22 l 261 61 l 261 -258 q 253 -283 261 -283 q 244 -261 244 -283 l 244 -36 l 8 -36 l 8 -81 q 72 -236 8 -181 q 254 -292 136 -292 q 435 -237 372 -292 q 497 -81 497 -182 "},"z":{"ha":449,"x_min":6,"x_max":443,"o":"m 6 0 l 443 0 l 443 8 l 247 8 l 246 11 l 425 700 l 425 708 l 25 708 l 25 700 l 185 700 l 186 697 l 6 8 l 6 0 "},"$":{"ha":533,"x_min":8,"x_max":525,"o":"m 275 639 l 525 639 l 525 729 q 463 913 525 847 q 285 986 400 979 l 378 1110 l 156 1110 l 249 986 q 69 917 131 982 q 8 729 8 851 l 8 717 q 14 611 8 656 q 33 533 19 567 q 72 476 47 500 q 132 431 96 451 l 176 406 q 233 372 213 385 q 262 350 253 360 q 273 331 271 340 q 275 306 275 321 l 275 15 q 267 -6 275 -6 q 258 17 258 -6 l 258 333 l 8 333 l 8 244 q 69 56 8 121 q 249 -14 131 -10 l 156 -137 l 378 -137 l 285 -14 q 463 59 400 -7 q 525 244 525 125 l 525 263 q 519 367 525 324 q 501 443 514 411 q 465 499 488 475 q 406 542 442 522 l 368 563 q 306 599 328 585 q 273 623 283 613 q 260 644 263 633 q 258 669 258 654 l 258 956 q 267 978 258 978 q 275 956 275 978 l 275 639 "},"¢":{"ha":506,"x_min":8,"x_max":497,"o":"m 244 17 l 244 692 q 253 714 244 714 q 261 692 261 714 l 261 414 l 497 414 l 497 483 q 436 652 497 589 q 269 722 375 715 l 364 847 l 142 847 l 236 722 q 68 655 128 718 q 8 483 8 592 l 8 225 q 68 53 8 117 q 236 -14 128 -10 l 142 -140 l 364 -140 l 269 -14 q 436 56 375 -7 q 497 225 497 119 l 497 294 l 261 294 l 261 17 q 253 -6 261 -6 q 244 17 244 -6 "},"¥":{"ha":411,"x_min":6,"x_max":407,"o":"m 257 972 l 8 972 l 82 397 l 82 386 l 6 386 l 6 378 l 82 378 l 82 267 l 6 267 l 6 258 l 82 258 l 82 0 l 333 0 l 333 258 l 403 258 l 403 267 l 333 267 l 333 378 l 403 378 l 403 386 l 333 386 l 333 397 l 407 972 l 396 972 l 331 461 l 328 461 l 257 972 "},"§":{"ha":507,"x_min":8,"x_max":497,"o":"m 261 703 l 497 703 l 497 760 q 481 848 497 807 q 434 919 465 889 q 357 968 403 950 q 251 986 311 986 q 147 969 192 986 q 71 922 101 951 q 25 855 40 893 q 10 775 10 817 l 10 669 q 22 585 10 619 q 61 528 33 551 q 22 467 35 500 q 10 399 10 435 l 10 293 q 34 183 10 222 q 118 115 58 143 l 218 69 q 253 48 246 57 q 261 19 261 39 l 261 -264 q 253 -285 261 -285 q 244 -264 244 -285 l 244 -10 l 8 -10 l 8 -65 q 24 -155 8 -114 q 69 -227 39 -196 q 144 -276 100 -258 q 249 -293 189 -293 q 355 -276 308 -293 q 433 -229 401 -258 q 480 -162 464 -200 q 496 -82 496 -124 l 496 24 q 483 105 496 72 q 444 161 471 138 q 484 221 472 188 q 496 294 496 254 l 496 400 q 467 510 496 471 q 381 579 439 550 l 282 628 q 251 648 258 639 q 244 676 244 657 l 244 956 q 253 976 244 976 q 261 956 261 976 l 261 703 m 246 283 q 244 300 244 289 l 244 385 q 247 400 244 393 q 260 411 249 407 q 261 396 261 407 l 261 311 q 259 298 261 306 q 246 283 257 290 "},"D":{"ha":533,"x_min":8,"x_max":525,"o":"m 264 972 l 8 972 l 8 0 l 264 0 q 457 60 389 0 q 525 243 525 119 l 525 729 q 457 912 525 851 q 264 972 389 972 m 258 8 l 258 964 l 261 964 q 274 960 272 964 q 275 942 275 957 l 275 31 q 274 12 275 15 q 261 8 272 8 l 258 8 "},"…":{"ha":760,"x_min":8,"x_max":751,"o":"m 8 119 q 128 -7 8 -7 q 217 25 186 -7 q 247 117 247 57 q 217 212 247 179 q 128 244 186 244 q 8 119 8 244 m 261 119 q 381 -7 261 -7 q 469 25 439 -7 q 500 117 500 57 q 469 212 500 179 q 381 244 439 244 q 261 119 261 244 m 513 119 q 632 -7 513 -7 q 721 25 690 -7 q 751 117 751 57 q 721 212 751 179 q 632 244 690 244 q 513 119 513 244 "},"÷":{"ha":525,"x_min":8,"x_max":517,"o":"m 517 474 l 517 482 l 8 482 l 8 474 l 517 474 m 155 695 q 262 581 155 581 q 342 610 315 581 q 370 693 370 639 q 342 778 370 749 q 262 808 315 808 q 155 695 155 808 m 155 260 q 262 147 155 147 q 342 175 315 147 q 370 258 370 204 q 342 343 370 314 q 262 373 315 373 q 155 260 155 373 "},"!":{"ha":267,"x_min":8,"x_max":258,"o":"m 258 972 l 8 972 l 8 917 l 129 254 l 138 254 l 258 917 l 258 972 m 14 119 q 133 -7 14 -7 q 222 25 192 -7 q 253 117 253 57 q 222 212 253 179 q 133 244 192 244 q 14 119 14 244 "},".":{"ha":256,"x_min":8,"x_max":247,"o":"m 8 119 q 128 -7 8 -7 q 217 25 186 -7 q 247 117 247 57 q 217 212 247 179 q 128 244 186 244 q 8 119 8 244 "},",":{"ha":256,"x_min":-12,"x_max":247,"o":"m 31 224 l -12 -133 l 24 -133 l 247 224 l 31 224 "},":":{"ha":256,"x_min":8,"x_max":247,"o":"m 8 119 q 128 -7 8 -7 q 217 25 186 -7 q 247 117 247 57 q 217 212 247 179 q 128 244 186 244 q 8 119 8 244 m 8 592 q 128 465 8 465 q 217 497 186 465 q 247 589 247 529 q 217 684 247 651 q 128 717 186 717 q 8 592 8 717 "},"”":{"ha":479,"x_min":8,"x_max":469,"o":"m 247 1000 l 310 564 l 321 564 l 469 1000 l 247 1000 m 8 1000 l 71 564 l 82 564 l 231 1000 l 8 1000 "},"“":{"ha":479,"x_min":8,"x_max":469,"o":"m 231 564 l 168 1000 l 157 1000 l 8 564 l 231 564 m 469 564 l 407 1000 l 396 1000 l 247 564 l 469 564 "},"’":{"ha":239,"x_min":8,"x_max":231,"o":"m 8 1000 l 71 564 l 82 564 l 231 1000 l 8 1000 "},"‘":{"ha":239,"x_min":8,"x_max":231,"o":"m 231 564 l 168 1000 l 157 1000 l 8 564 l 231 564 "},"?":{"ha":535,"x_min":10,"x_max":526,"o":"m 10 729 l 10 597 l 260 597 l 260 956 q 268 978 260 978 q 276 956 276 978 l 276 669 q 272 619 276 640 q 259 583 267 599 q 242 553 251 567 q 221 528 232 540 l 219 526 q 190 490 206 510 q 163 444 175 471 q 142 380 150 417 q 135 290 135 343 l 135 254 l 371 254 l 371 306 q 389 385 371 354 q 432 449 407 417 l 433 451 q 466 495 450 472 q 496 549 482 518 q 518 621 510 581 q 526 717 526 661 l 526 729 q 461 921 526 856 q 272 986 396 986 q 78 919 146 986 q 10 729 10 853 m 132 119 q 251 -7 132 -7 q 340 25 310 -7 q 371 117 371 57 q 340 212 371 179 q 251 244 310 244 q 132 119 132 244 "},"|":{"ha":267,"x_min":8,"x_max":258,"o":"m 8 -215 l 258 -215 l 258 1000 l 8 1000 l 8 -215 "},"/":{"ha":150,"x_min":8,"x_max":142,"o":"m 8 -111 l 19 -111 l 142 1014 l 131 1014 l 8 -111 "},"\\":{"ha":150,"x_min":8,"x_max":142,"o":"m 8 1014 l 131 -111 l 142 -111 l 19 1014 l 8 1014 "},"⁄":{"ha":172,"x_min":10,"x_max":164,"o":"m 18 0 l 164 1000 l 156 1000 l 10 0 l 18 0 "},"<":{"ha":418,"x_min":8,"x_max":410,"o":"m 408 165 l 408 178 l 33 365 l 33 368 l 410 558 l 410 571 l 8 368 l 8 365 l 408 165 "},">":{"ha":418,"x_min":7,"x_max":408,"o":"m 8 571 l 8 558 l 383 371 l 383 368 l 7 178 l 7 165 l 408 368 l 408 371 l 8 571 "},"%":{"ha":840,"x_min":8,"x_max":832,"o":"m 8 747 l 8 656 q 19 560 8 604 q 53 484 29 515 q 115 435 76 453 q 208 417 153 417 q 303 435 264 417 q 367 485 342 453 q 403 560 392 517 q 414 656 414 604 l 414 747 q 403 842 414 799 q 367 918 392 886 q 303 968 342 950 q 208 986 264 986 q 115 968 153 986 q 53 919 76 950 q 19 844 29 888 q 8 747 8 800 m 203 447 l 203 956 q 211 978 203 978 q 219 956 219 978 l 219 447 q 211 425 219 425 q 203 447 203 425 m 622 972 l 206 0 l 217 0 l 633 972 l 622 972 m 426 317 l 426 225 q 437 129 426 174 q 471 53 447 85 q 533 4 494 22 q 626 -14 571 -14 q 721 4 682 -14 q 785 54 760 22 q 821 130 810 86 q 832 225 832 174 l 832 317 q 821 412 832 368 q 785 488 810 456 q 721 538 760 519 q 626 556 682 556 q 533 538 571 556 q 471 488 494 519 q 437 413 447 457 q 426 317 426 369 m 621 17 l 621 525 q 629 547 621 547 q 638 525 638 547 l 638 17 q 629 -6 638 -6 q 621 17 621 -6 "},"‰":{"ha":1263,"x_min":8,"x_max":1254,"o":"m 8 747 l 8 656 q 19 560 8 604 q 53 484 29 515 q 115 435 76 453 q 208 417 153 417 q 303 435 264 417 q 367 485 342 453 q 403 560 392 517 q 414 656 414 604 l 414 747 q 403 842 414 799 q 367 918 392 886 q 303 968 342 950 q 208 986 264 986 q 115 968 153 986 q 53 919 76 950 q 19 844 29 888 q 8 747 8 800 m 203 447 l 203 956 q 211 978 203 978 q 219 956 219 978 l 219 447 q 211 425 219 425 q 203 447 203 425 m 622 972 l 206 0 l 217 0 l 633 972 l 622 972 m 426 317 l 426 225 q 437 129 426 174 q 471 53 447 85 q 533 4 494 22 q 626 -14 571 -14 q 721 4 682 -14 q 785 54 760 22 q 821 130 810 86 q 832 225 832 174 l 832 317 q 821 412 832 368 q 785 488 810 456 q 721 538 760 519 q 626 556 682 556 q 533 538 571 556 q 471 488 494 519 q 437 413 447 457 q 426 317 426 369 m 849 317 l 849 225 q 859 129 849 174 q 893 53 869 85 q 955 4 917 22 q 1049 -14 993 -14 q 1143 4 1104 -14 q 1207 54 1182 22 q 1243 130 1232 86 q 1254 225 1254 174 l 1254 317 q 1243 412 1254 368 q 1207 488 1232 456 q 1143 538 1182 519 q 1049 556 1104 556 q 955 538 993 556 q 893 488 917 519 q 859 413 869 457 q 849 317 849 369 m 621 17 l 621 525 q 629 547 621 547 q 638 525 638 547 l 638 17 q 629 -6 638 -6 q 621 17 621 -6 m 1043 17 l 1043 525 q 1051 547 1043 547 q 1060 525 1060 547 l 1060 17 q 1051 -6 1060 -6 q 1043 17 1043 -6 "},"«":{"ha":701,"x_min":8,"x_max":693,"o":"m 408 96 l 414 106 l 21 365 l 21 368 l 415 631 l 410 640 l 8 374 l 8 360 l 408 96 m 686 96 l 692 106 l 299 365 l 299 368 l 693 631 l 688 640 l 286 374 l 286 360 l 686 96 "},"»":{"ha":701,"x_min":8,"x_max":693,"o":"m 293 640 l 288 631 l 681 371 l 681 368 l 286 106 l 292 96 l 693 363 l 693 376 l 293 640 m 15 640 l 10 631 l 403 371 l 403 368 l 8 106 l 14 96 l 415 363 l 415 376 l 15 640 "},"^":{"ha":339,"x_min":8,"x_max":331,"o":"m 318 653 l 331 653 l 171 972 l 168 972 l 8 653 l 21 653 l 168 947 l 171 947 l 318 653 "},"*":{"ha":542,"x_min":10,"x_max":532,"o":"m 250 775 l 54 638 l 200 531 l 271 760 l 343 531 l 488 636 l 292 776 l 532 772 l 476 944 l 283 800 l 361 1028 l 181 1028 l 258 800 l 65 944 l 10 772 l 250 775 "},"#":{"ha":635,"x_min":10,"x_max":626,"o":"m 129 372 l 108 0 l 275 0 l 296 372 l 326 372 l 306 0 l 472 0 l 493 372 l 626 372 l 626 381 l 493 381 l 506 593 l 626 593 l 626 601 l 506 601 l 528 974 l 361 974 l 340 601 l 308 601 l 331 974 l 164 974 l 143 601 l 10 601 l 10 593 l 142 593 l 131 381 l 10 381 l 10 372 l 129 372 m 328 381 l 296 381 l 308 593 l 339 593 l 328 381 "},"[":{"ha":350,"x_min":8,"x_max":342,"o":"m 8 -215 l 342 -215 l 342 -207 l 258 -207 l 258 992 l 342 992 l 342 1000 l 8 1000 l 8 -215 "},"]":{"ha":350,"x_min":8,"x_max":342,"o":"m 342 1000 l 8 1000 l 8 992 l 92 992 l 92 -207 l 8 -207 l 8 -215 l 342 -215 l 342 1000 "},"(":{"ha":339,"x_min":8,"x_max":329,"o":"m 315 -219 l 329 -215 q 276 67 293 -89 q 258 388 258 224 q 276 710 258 551 q 329 1000 293 868 l 315 1004 q 85 710 161 868 q 8 388 8 551 q 85 67 8 224 q 315 -219 161 -89 "},")":{"ha":339,"x_min":10,"x_max":331,"o":"m 24 1004 l 10 1000 q 63 717 46 874 q 81 397 81 561 q 63 75 81 233 q 10 -215 46 -83 l 24 -219 q 254 75 178 -83 q 331 397 331 233 q 254 717 331 561 q 24 1004 178 874 "},"{":{"ha":483,"x_min":8,"x_max":474,"o":"m 356 578 l 356 900 q 359 961 356 938 q 373 997 363 985 q 401 1015 383 1010 q 447 1019 419 1019 l 474 1019 l 474 1028 l 360 1028 q 171 963 236 1028 q 106 771 106 897 l 106 486 q 88 421 106 443 q 8 399 71 399 l 8 390 q 88 368 71 390 q 106 303 106 346 l 106 14 q 171 -178 106 -112 q 360 -243 236 -243 l 474 -243 l 474 -235 l 447 -235 q 401 -230 419 -235 q 373 -212 383 -225 q 359 -176 363 -200 q 356 -115 356 -153 l 356 208 q 349 279 356 246 q 328 338 343 313 q 289 377 314 363 q 225 392 264 392 l 225 394 q 289 409 264 394 q 328 449 314 424 q 349 507 343 474 q 356 578 356 540 "},"}":{"ha":483,"x_min":8,"x_max":474,"o":"m 126 207 l 126 -115 q 123 -176 126 -153 q 109 -212 119 -200 q 81 -230 99 -225 q 35 -235 63 -235 l 8 -235 l 8 -243 l 122 -243 q 311 -178 246 -243 q 376 14 376 -112 l 376 299 q 394 364 376 342 q 474 386 411 386 l 474 394 q 394 417 411 394 q 376 482 376 439 l 376 771 q 311 962 376 897 q 122 1028 246 1028 l 8 1028 l 8 1019 l 35 1019 q 81 1015 63 1019 q 109 997 99 1010 q 123 961 119 985 q 126 900 126 937 l 126 576 q 133 506 126 539 q 153 447 139 472 q 193 408 168 422 q 257 393 218 393 l 257 390 q 193 376 218 390 q 153 336 168 361 q 133 278 139 311 q 126 207 126 244 "},"@":{"ha":922,"x_min":10,"x_max":914,"o":"m 664 17 l 664 667 l 483 667 l 483 564 l 467 564 q 429 644 457 614 q 364 674 401 674 q 288 634 318 674 q 258 532 258 594 l 258 204 q 285 42 258 97 q 361 -14 311 -14 q 432 24 404 -14 q 467 132 460 63 l 483 132 l 483 126 q 499 70 483 96 q 541 26 514 44 q 606 -3 568 7 q 686 -14 643 -14 q 851 47 788 -14 q 914 229 914 107 l 914 558 q 881 707 914 642 q 787 817 847 772 q 643 886 726 863 q 461 910 560 910 q 279 886 363 910 q 136 817 196 863 q 43 707 76 772 q 10 558 10 642 l 10 228 q 38 6 10 97 q 124 -142 65 -86 q 276 -224 183 -199 q 497 -250 368 -250 l 497 -242 q 356 -232 410 -242 q 270 -195 301 -222 q 228 -120 239 -168 q 217 6 217 -72 l 217 653 q 234 773 217 725 q 283 849 251 821 q 360 890 315 878 q 461 901 406 901 q 562 890 517 901 q 639 849 607 878 q 688 773 671 821 q 706 653 706 725 l 706 17 q 685 -6 706 -6 q 664 17 664 -6 m 483 547 l 483 147 q 474 140 479 140 q 467 153 467 140 l 467 543 q 474 554 467 554 q 483 547 481 554 "},"&":{"ha":575,"x_min":8,"x_max":567,"o":"m 258 510 l 258 956 q 267 978 258 978 q 275 956 275 978 l 275 682 l 525 682 l 525 729 q 457 919 525 853 q 263 986 389 986 q 73 921 138 986 q 8 729 8 856 l 8 703 q 13 621 8 660 q 34 552 18 582 q 78 505 50 522 q 151 488 106 488 l 151 485 q 78 467 106 485 q 34 421 50 450 q 13 353 18 392 q 8 271 8 314 l 8 244 q 24 127 8 176 q 67 47 40 78 q 129 1 94 15 q 203 -14 164 -14 q 298 10 256 -14 q 351 78 340 33 l 354 78 l 354 0 l 525 0 l 525 483 l 567 483 l 567 493 l 525 493 l 525 654 l 275 654 l 275 493 l 274 493 q 261 498 264 493 q 258 510 258 503 m 274 483 l 275 483 l 275 28 q 267 6 275 6 q 258 28 258 6 l 258 467 q 261 478 258 474 q 274 483 264 483 "},"˜":{"ha":289,"x_min":8,"x_max":279,"o":"m 279 965 l 279 968 l 271 968 l 271 965 q 262 933 271 942 q 238 925 253 925 q 199 933 221 925 q 156 949 178 940 l 151 950 q 112 965 131 958 q 78 972 93 972 q 26 925 44 972 q 8 790 8 878 l 8 788 l 17 788 l 17 789 q 26 822 17 813 q 51 832 36 832 q 88 825 67 832 q 131 808 108 818 l 136 806 q 178 790 157 797 q 214 782 199 782 q 279 965 279 782 "},"+":{"ha":594,"x_min":8,"x_max":586,"o":"m 586 468 l 586 476 l 301 476 l 301 760 l 293 760 l 293 476 l 8 476 l 8 468 l 293 468 l 293 182 l 301 182 l 301 468 l 586 468 "},"-":{"ha":350,"x_min":8,"x_max":342,"o":"m 342 467 l 342 475 l 8 475 l 8 467 l 342 467 "},"–":{"ha":685,"x_min":10,"x_max":676,"o":"m 676 467 l 676 475 l 10 475 l 10 467 l 676 467 "},"—":{"ha":1017,"x_min":8,"x_max":1008,"o":"m 1008 467 l 1008 475 l 8 475 l 8 467 l 1008 467 "},"_":{"ha":419,"x_min":8,"x_max":411,"o":"m 411 -8 l 411 0 l 8 0 l 8 -8 l 411 -8 "},"−":{"ha":525,"x_min":8,"x_max":517,"o":"m 517 474 l 517 482 l 8 482 l 8 474 l 517 474 "},"=":{"ha":553,"x_min":8,"x_max":544,"o":"m 544 622 l 544 631 l 8 631 l 8 622 l 544 622 m 544 311 l 544 319 l 8 319 l 8 311 l 544 311 "},"•":{"ha":363,"x_min":10,"x_max":353,"o":"m 10 510 q 54 382 10 426 q 182 338 99 338 q 308 382 264 338 q 353 510 353 426 q 308 636 353 592 q 182 681 264 681 q 54 636 99 681 q 10 510 10 592 "},"¿":{"ha":535,"x_min":8,"x_max":525,"o":"m 156 604 q 275 478 156 478 q 364 510 333 478 q 394 603 394 542 q 364 698 394 665 q 275 731 333 731 q 156 604 156 731 m 525 -35 l 525 97 l 275 97 l 275 -261 q 267 -283 275 -283 q 258 -261 258 -283 l 258 25 q 275 112 258 83 q 315 167 292 140 l 315 168 q 346 204 331 185 q 373 251 361 224 q 392 315 385 278 q 400 404 400 351 l 400 453 l 164 453 l 164 389 q 146 309 164 340 q 103 246 128 278 l 101 244 q 69 200 85 224 q 39 145 53 176 q 17 74 25 114 q 8 -22 8 33 l 8 -35 q 74 -226 8 -161 q 263 -292 139 -292 q 457 -225 389 -292 q 525 -35 525 -158 "},"¡":{"ha":268,"x_min":8,"x_max":258,"o":"m 14 603 q 133 476 14 476 q 222 508 192 476 q 253 600 253 540 q 222 695 253 663 q 133 728 192 728 q 14 603 14 728 m 8 -224 l 8 -279 l 258 -279 l 258 -224 l 138 453 l 129 453 l 8 -224 "},"¶":{"ha":794,"x_min":8,"x_max":786,"o":"m 536 -215 l 786 -215 l 786 1000 l 536 1000 l 536 -215 m 258 -215 l 508 -215 l 508 1000 l 258 1000 q 146 990 193 1000 q 68 941 99 979 q 23 827 38 903 q 8 621 8 751 q 23 415 8 490 q 68 300 38 339 q 146 251 99 261 q 258 240 193 240 l 258 -215 "},"©":{"ha":874,"x_min":10,"x_max":865,"o":"m 10 549 l 10 433 q 32 238 10 321 q 104 98 54 154 q 235 14 154 42 q 431 -14 315 -14 q 631 15 549 -14 q 766 99 714 43 q 842 236 818 154 q 865 425 865 318 l 865 549 q 840 738 865 656 q 763 874 815 819 q 626 958 710 929 q 428 986 543 986 q 108 879 207 986 q 10 549 10 772 m 183 269 l 183 706 q 198 834 183 782 q 243 918 213 886 q 322 964 274 950 q 438 978 369 978 q 553 964 506 978 q 632 918 601 950 q 677 834 663 886 q 692 706 692 782 l 692 269 q 677 141 692 193 q 632 56 663 89 q 553 9 601 24 q 438 -6 506 -6 q 322 9 369 -6 q 243 56 274 24 q 198 141 213 89 q 183 269 183 193 m 429 183 l 429 788 q 438 810 429 810 q 446 788 446 810 l 446 501 l 668 501 l 668 576 q 660 676 668 632 q 626 752 651 721 q 556 801 601 783 q 438 818 511 818 q 320 801 365 818 q 250 753 275 785 q 216 677 225 722 q 207 576 207 632 l 207 394 q 218 294 207 339 q 255 217 229 249 q 325 169 281 186 q 436 153 369 153 q 549 170 504 153 q 621 219 594 188 q 658 294 647 250 q 668 394 668 339 l 668 474 l 446 474 l 446 183 q 438 161 446 161 q 429 183 429 161 "},"¬":{"ha":675,"x_min":8,"x_max":667,"o":"m 8 972 l 8 0 l 667 0 l 667 972 l 8 972 m 338 543 l 119 903 l 556 903 l 338 543 m 78 115 l 78 857 l 303 486 l 78 115 m 597 115 l 372 486 l 597 857 l 597 115 m 119 69 l 338 429 l 556 69 l 119 69 "},"®":{"ha":874,"x_min":10,"x_max":865,"o":"m 10 549 l 10 433 q 32 238 10 321 q 104 98 54 154 q 235 14 154 42 q 431 -14 315 -14 q 631 15 549 -14 q 766 99 714 43 q 842 236 818 154 q 865 425 865 318 l 865 549 q 840 738 865 656 q 763 874 815 819 q 626 958 710 929 q 428 986 543 986 q 108 879 207 986 q 10 549 10 772 m 183 269 l 183 706 q 198 834 183 782 q 243 918 213 886 q 322 964 274 950 q 438 978 369 978 q 553 964 506 978 q 632 918 601 950 q 677 834 663 886 q 692 706 692 782 l 692 269 q 677 141 692 193 q 632 56 663 89 q 553 9 601 24 q 438 -6 506 -6 q 322 9 369 -6 q 243 56 274 24 q 198 141 213 89 q 183 269 183 193 m 439 775 l 286 775 l 286 192 l 432 192 l 432 464 l 438 464 q 447 462 444 464 q 449 450 449 460 l 449 311 q 450 249 449 278 q 457 192 451 219 l 604 192 q 597 248 599 219 q 596 310 596 276 l 596 317 q 564 424 596 383 q 483 464 532 464 l 483 467 q 564 503 532 467 q 596 615 596 540 l 596 619 q 555 737 596 699 q 439 775 514 775 m 432 468 l 432 767 l 438 767 q 447 765 444 767 q 449 754 449 763 l 449 481 q 447 470 449 472 q 438 468 444 468 l 432 468 "},"™":{"ha":464,"x_min":8,"x_max":456,"o":"m 186 964 l 186 972 l 8 972 l 8 964 l 47 964 l 47 583 l 147 583 l 147 964 l 186 964 m 310 972 l 203 972 l 203 583 l 211 583 l 211 900 l 214 900 l 231 583 l 336 583 l 353 900 l 356 900 l 356 583 l 456 583 l 456 972 l 350 972 l 331 635 l 328 635 l 310 972 "},"×":{"ha":475,"x_min":8,"x_max":465,"o":"m 464 692 l 457 700 l 236 481 l 18 699 l 10 690 l 228 472 l 8 253 l 17 244 l 236 464 l 457 243 l 465 251 l 244 472 l 464 692 "},"¦":{"ha":267,"x_min":8,"x_max":258,"o":"m 8 426 l 258 426 l 258 1000 l 8 1000 l 8 426 m 8 -215 l 258 -215 l 258 354 l 8 354 l 8 -215 "},"†":{"ha":574,"x_min":10,"x_max":565,"o":"m 413 972 l 163 972 l 163 708 l 10 708 l 10 700 l 163 700 l 163 0 l 413 0 l 413 700 l 565 700 l 565 708 l 413 708 l 413 972 "},"‡":{"ha":574,"x_min":10,"x_max":565,"o":"m 413 972 l 163 972 l 163 708 l 10 708 l 10 700 l 163 700 l 163 272 l 10 272 l 10 264 l 163 264 l 163 0 l 413 0 l 413 264 l 565 264 l 565 272 l 413 272 l 413 700 l 565 700 l 565 708 l 413 708 l 413 972 "},"›":{"ha":424,"x_min":8,"x_max":415,"o":"m 15 640 l 10 631 l 403 371 l 403 368 l 8 106 l 14 96 l 415 363 l 415 376 l 15 640 "},"‹":{"ha":424,"x_min":8,"x_max":415,"o":"m 408 96 l 414 106 l 21 365 l 21 368 l 415 631 l 410 640 l 8 374 l 8 360 l 408 96 "},"€":{"ha":656,"x_min":8,"x_max":647,"o":"m 314 542 l 314 867 q 319 928 314 906 q 331 961 324 950 q 344 975 338 972 q 356 978 351 978 q 367 976 360 978 q 381 966 374 974 q 392 943 388 958 q 397 900 397 928 l 397 500 l 647 500 l 647 729 q 570 919 647 853 q 351 986 493 986 q 138 921 211 986 q 64 729 64 856 l 64 542 l 8 542 l 8 533 l 64 533 l 64 436 l 8 436 l 8 428 l 64 428 l 64 244 q 138 52 64 118 q 351 -14 211 -14 q 570 53 493 -14 q 647 244 647 119 l 647 472 l 397 472 l 397 72 q 392 31 397 46 q 381 7 388 15 q 367 -3 374 -1 q 356 -6 360 -6 q 344 -3 351 -6 q 331 10 338 0 q 319 42 324 21 q 314 97 314 63 l 314 428 l 369 428 l 369 436 l 314 436 l 314 533 l 369 533 l 369 542 l 314 542 "},"ˆ":{"ha":296,"x_min":8,"x_max":286,"o":"m 8 782 l 17 782 l 146 818 l 149 818 l 278 782 l 286 782 l 151 972 l 143 972 l 8 782 "},"°":{"ha":288,"x_min":8,"x_max":279,"o":"m 8 883 l 8 711 q 42 616 8 653 q 142 579 75 579 q 244 616 210 579 q 279 711 279 653 l 279 883 q 244 977 279 940 q 142 1014 210 1014 q 42 978 75 1014 q 8 883 8 942 m 135 607 l 135 989 q 144 1006 135 1006 q 153 989 153 1006 l 153 607 q 144 588 153 588 q 135 607 135 588 "},"'":{"ha":199,"x_min":10,"x_max":190,"o":"m 190 986 l 190 1000 l 10 1000 l 10 986 l 96 592 l 104 592 l 190 986 "},"\"":{"ha":397,"x_min":10,"x_max":388,"o":"m 190 986 l 190 1000 l 10 1000 l 10 986 l 96 592 l 104 592 l 190 986 m 388 986 l 388 1000 l 207 1000 l 207 986 l 293 592 l 301 592 l 388 986 "},"‚":{"ha":240,"x_min":10,"x_max":232,"o":"m 10 278 l 72 -158 l 83 -158 l 232 278 l 10 278 "},"„":{"ha":479,"x_min":10,"x_max":471,"o":"m 10 278 l 72 -158 l 83 -158 l 232 278 l 10 278 m 249 278 l 311 -158 l 322 -158 l 471 278 l 249 278 "},"~":{"ha":472,"x_min":10,"x_max":464,"o":"m 464 565 l 464 568 l 450 568 l 450 565 q 435 531 450 540 q 393 521 419 521 q 329 528 365 521 q 257 547 293 536 l 249 549 q 182 566 214 558 q 126 574 150 574 q 40 524 69 574 q 10 379 10 475 l 10 375 l 24 375 l 24 378 q 40 415 24 404 q 81 425 56 425 q 143 417 108 425 q 214 399 178 410 l 222 396 q 292 377 258 385 q 353 369 326 369 q 437 416 410 369 q 464 565 464 463 "},"´":{"ha":197,"x_min":8,"x_max":189,"o":"m 40 782 l 49 782 l 189 972 l 8 972 l 40 782 "},"`":{"ha":197,"x_min":8,"x_max":189,"o":"m 149 782 l 157 782 l 189 972 l 8 972 l 149 782 "},"¨":{"ha":419,"x_min":8,"x_max":411,"o":"m 8 878 q 29 802 8 829 q 107 775 50 775 q 185 802 164 775 q 206 876 206 829 q 184 951 206 924 q 106 979 163 979 q 28 952 49 979 q 8 878 8 925 m 214 878 q 235 802 214 829 q 313 775 256 775 q 390 802 369 775 q 411 876 411 829 q 390 951 411 924 q 311 979 368 979 q 234 952 254 979 q 214 878 214 925 "},"˚":{"ha":256,"x_min":8,"x_max":247,"o":"m 8 878 q 40 800 8 825 q 128 775 72 775 q 215 800 183 775 q 247 878 247 825 q 215 955 247 931 q 126 979 182 979 q 40 955 72 979 q 8 878 8 931 m 21 878 q 49 947 21 925 q 126 968 78 968 q 206 946 176 968 q 235 878 235 924 q 206 808 235 829 q 128 786 176 786 q 50 808 79 786 q 21 878 21 829 "},"ˇ":{"ha":296,"x_min":8,"x_max":286,"o":"m 286 972 l 278 972 l 149 936 l 146 936 l 17 972 l 8 972 l 143 782 l 151 782 l 286 972 "},"˘":{"ha":328,"x_min":8,"x_max":319,"o":"m 17 972 l 8 972 q 22 884 8 921 q 58 825 36 847 q 108 792 81 803 q 164 782 136 782 q 219 792 192 782 q 269 825 247 803 q 306 884 292 847 q 319 972 319 921 l 310 972 q 268 913 310 932 q 164 893 226 893 q 59 913 101 893 q 17 972 17 932 "},"˝":{"ha":311,"x_min":8,"x_max":304,"o":"m 25 782 l 33 782 l 147 972 l 8 972 l 25 782 m 182 782 l 190 782 l 304 972 l 165 972 l 182 782 "},"˙":{"ha":214,"x_min":8,"x_max":206,"o":"m 8 878 q 29 802 8 829 q 107 775 50 775 q 185 802 164 775 q 206 876 206 829 q 184 951 206 924 q 106 979 163 979 q 28 952 49 979 q 8 878 8 925 "},"˛":{"ha":251,"x_min":10,"x_max":243,"o":"m 240 -7 q 140 -21 183 -7 q 68 -57 97 -35 q 24 -107 39 -79 q 10 -161 10 -135 q 42 -234 10 -203 q 140 -265 74 -265 q 243 -247 188 -265 l 243 -240 q 208 -244 225 -244 q 135 -212 160 -244 q 110 -140 110 -181 q 118 -96 110 -118 q 142 -56 126 -74 q 183 -27 158 -39 q 240 -14 207 -15 l 240 -7 "},"¸":{"ha":293,"x_min":10,"x_max":283,"o":"m 58 -10 l 50 -65 q 145 -94 115 -65 q 175 -157 175 -122 q 145 -224 175 -193 q 58 -254 115 -254 q 10 -247 38 -254 l 10 -256 q 99 -268 58 -268 q 174 -258 140 -268 q 233 -233 208 -249 q 270 -197 257 -217 q 283 -156 283 -176 q 231 -86 283 -117 q 60 -56 179 -56 l 67 -10 l 58 -10 "},"B":{"ha":544,"x_min":8,"x_max":539,"o":"m 264 972 l 8 972 l 8 0 l 264 0 q 466 63 393 0 q 539 239 539 126 l 539 257 q 522 355 539 311 q 473 430 504 399 q 397 478 442 461 q 300 496 353 496 l 300 499 q 467 558 408 499 q 525 726 525 617 l 525 733 q 457 910 525 849 q 264 972 389 972 m 258 501 l 258 964 l 261 964 q 274 960 272 964 q 275 942 275 957 l 275 524 q 274 505 275 508 q 261 501 272 501 l 258 501 m 258 8 l 258 493 l 261 493 q 274 490 272 493 q 275 471 275 486 l 275 31 q 274 12 275 15 q 261 8 272 8 l 258 8 "},"C":{"ha":533,"x_min":8,"x_max":525,"o":"m 258 17 l 258 956 q 267 978 258 978 q 275 956 275 978 l 275 500 l 525 500 l 525 729 q 457 919 525 853 q 263 986 389 986 q 74 921 139 986 q 8 729 8 856 l 8 244 q 74 52 8 118 q 263 -14 139 -14 q 457 53 389 -14 q 525 244 525 119 l 525 472 l 275 472 l 275 17 q 267 -6 275 -6 q 258 17 258 -6 "},"A":{"ha":442,"x_min":4,"x_max":438,"o":"m 319 972 l 122 972 l 4 0 l 15 0 l 51 290 l 151 290 l 188 0 l 438 0 l 319 972 m 151 299 l 51 299 l 100 693 l 103 693 l 151 299 "},"±":{"ha":525,"x_min":8,"x_max":517,"o":"m 510 468 l 510 476 l 267 476 l 267 704 l 258 704 l 258 476 l 15 476 l 15 468 l 258 468 l 258 238 l 267 238 l 267 468 l 510 468 m 517 85 l 517 93 l 8 93 l 8 85 l 517 85 "},"ı":{"ha":256,"x_min":10,"x_max":246,"o":"m 246 708 l 10 708 l 10 0 l 246 0 l 246 708 "},"·":{"ha":257,"x_min":8,"x_max":247,"o":"m 8 519 q 128 393 8 393 q 217 425 186 393 q 247 517 247 457 q 217 612 247 579 q 128 644 186 644 q 8 519 8 644 "},"ª":{"ha":311,"x_min":10,"x_max":303,"o":"m 161 979 l 161 796 l 96 796 q 35 772 60 796 q 10 711 10 747 l 10 643 q 24 582 10 606 q 75 558 39 558 q 149 599 118 558 l 161 599 l 161 567 l 303 567 l 303 857 q 263 962 303 924 q 154 1000 224 1000 q 48 962 86 1000 q 10 857 10 924 l 10 810 l 149 810 l 149 979 q 156 992 149 992 q 161 979 161 992 m 161 788 l 161 610 q 154 606 160 606 q 149 613 149 606 l 149 781 q 154 788 149 788 l 161 788 "},"£":{"ha":547,"x_min":8,"x_max":539,"o":"m 286 347 l 286 963 q 294 978 286 978 q 303 956 303 978 l 303 500 l 539 500 l 539 729 q 474 919 539 853 q 290 986 410 986 q 112 944 174 986 q 50 807 50 903 l 50 347 l 8 347 l 8 339 l 50 339 l 50 264 q 49 194 50 226 q 42 131 47 161 q 29 72 38 101 q 8 8 21 42 l 8 0 l 539 0 l 539 8 l 247 8 q 278 132 269 72 q 286 263 286 192 l 286 339 l 497 339 l 497 347 l 286 347 "},"º":{"ha":310,"x_min":8,"x_max":301,"o":"m 8 857 l 8 701 q 44 599 8 639 q 153 558 81 558 q 264 599 226 558 q 301 701 301 639 l 301 857 q 264 960 301 919 q 153 1000 226 1000 q 44 960 81 1000 q 8 857 8 919 m 147 581 l 147 978 q 156 990 147 990 q 163 978 163 990 l 163 581 q 156 568 163 568 q 147 581 147 568 "},"¹":{"ha":190,"x_min":10,"x_max":182,"o":"m 47 572 l 182 572 l 182 986 l 10 986 l 10 979 l 46 979 l 47 976 l 47 572 "},"²":{"ha":303,"x_min":8,"x_max":294,"o":"m 8 875 l 8 819 l 143 819 l 143 969 q 145 988 143 985 q 151 992 147 992 q 158 988 156 992 q 160 969 160 985 l 160 839 q 158 819 160 826 q 149 803 157 811 q 127 788 142 796 q 88 769 113 781 l 79 765 q 28 727 43 750 q 14 661 14 704 l 14 572 l 294 572 l 294 581 l 149 581 l 149 640 q 162 690 149 679 q 203 708 175 701 l 206 708 q 231 719 217 711 q 260 742 246 726 q 285 785 275 758 q 294 854 294 813 l 294 875 q 258 963 294 925 q 154 1000 222 1000 q 92 990 119 1000 q 47 962 65 979 q 18 922 28 944 q 8 875 8 900 "},"³":{"ha":301,"x_min":8,"x_max":293,"o":"m 160 982 l 160 829 q 154 798 160 806 q 121 790 149 790 l 106 790 l 106 782 l 121 782 q 154 774 149 782 q 160 743 160 767 l 160 590 q 151 581 160 581 q 142 590 142 581 l 142 721 l 8 721 l 8 682 q 43 599 8 626 q 153 572 78 572 q 260 598 228 572 q 293 681 293 624 l 293 686 q 267 760 293 735 q 193 785 240 785 l 193 788 q 267 811 240 788 q 293 883 293 835 l 293 889 q 260 974 293 947 q 153 1000 228 1000 q 42 973 76 1000 q 8 890 8 946 l 8 851 l 142 851 l 142 982 q 151 992 142 992 q 160 982 160 992 "},"¼":{"ha":525,"x_min":10,"x_max":518,"o":"m 143 0 l 289 1000 l 281 1000 l 135 0 l 143 0 m 47 572 l 182 572 l 182 986 l 10 986 l 10 979 l 46 979 l 47 976 l 47 572 m 518 414 l 383 414 l 383 171 l 376 171 l 376 414 l 242 414 l 242 163 l 383 163 l 383 0 l 518 0 l 518 414 "},"¾":{"ha":617,"x_min":8,"x_max":610,"o":"m 235 0 l 381 1000 l 372 1000 l 226 0 l 235 0 m 160 982 l 160 829 q 154 798 160 806 q 121 790 149 790 l 106 790 l 106 782 l 121 782 q 154 774 149 782 q 160 743 160 767 l 160 590 q 151 581 160 581 q 142 590 142 581 l 142 721 l 8 721 l 8 682 q 43 599 8 626 q 153 572 78 572 q 260 598 228 572 q 293 681 293 624 l 293 686 q 267 760 293 735 q 193 785 240 785 l 193 788 q 267 811 240 788 q 293 883 293 835 l 293 889 q 260 974 293 947 q 153 1000 228 1000 q 42 973 76 1000 q 8 890 8 946 l 8 851 l 142 851 l 142 982 q 151 992 142 992 q 160 982 160 992 m 610 414 l 475 414 l 475 171 l 468 171 l 468 414 l 333 414 l 333 163 l 475 163 l 475 0 l 610 0 l 610 414 "},"½":{"ha":522,"x_min":10,"x_max":514,"o":"m 143 0 l 289 1000 l 281 1000 l 135 0 l 143 0 m 47 572 l 182 572 l 182 986 l 10 986 l 10 979 l 46 979 l 47 976 l 47 572 m 228 303 l 228 247 l 363 247 l 363 397 q 365 416 363 413 q 371 419 367 419 q 377 416 375 419 q 379 397 379 413 l 379 267 q 378 247 379 254 q 369 231 376 239 q 347 216 361 224 q 307 197 332 208 l 299 193 q 248 155 263 178 q 233 89 233 132 l 233 0 l 514 0 l 514 8 l 368 8 l 368 68 q 381 118 368 107 q 422 136 394 129 l 425 136 q 451 147 436 139 q 480 170 465 154 q 504 213 494 186 q 514 282 514 240 l 514 303 q 478 390 514 353 q 374 428 442 428 q 312 417 339 428 q 266 390 285 407 q 238 350 247 372 q 228 303 228 328 "},"¯":{"ha":322,"x_min":8,"x_max":314,"o":"m 314 871 l 314 879 l 8 879 l 8 871 l 314 871 "},"E":{"ha":378,"x_min":8,"x_max":369,"o":"m 258 964 l 369 964 l 369 972 l 8 972 l 8 0 l 369 0 l 369 8 l 258 8 l 258 508 l 369 508 l 369 517 l 258 517 l 258 964 "},";":{"ha":256,"x_min":-12,"x_max":247,"o":"m 8 592 q 128 465 8 465 q 217 497 186 465 q 247 589 247 529 q 217 684 247 651 q 128 717 186 717 q 8 592 8 717 m 31 224 l -12 -133 l 24 -133 l 247 224 l 31 224 "},"ƒ":{"ha":422,"x_min":-6,"x_max":428,"o":"m 93 767 l 93 708 l 38 708 l 38 700 l 93 700 l 93 -186 q 78 -254 93 -235 q 31 -274 63 -274 q 14 -273 22 -274 q -6 -271 6 -272 l -6 -278 q 66 -288 32 -285 q 132 -292 100 -292 q 213 -281 176 -292 q 275 -244 249 -271 q 315 -173 301 -218 q 329 -58 329 -128 l 329 700 l 428 700 l 428 708 l 329 708 l 329 894 q 344 963 329 943 q 392 982 360 982 q 408 981 400 982 q 428 979 417 981 l 428 986 q 356 997 390 993 q 290 1000 322 1000 q 210 990 246 1000 q 147 953 174 979 q 107 881 121 926 q 93 767 93 836 "},"⁴":{"ha":293,"x_min":8,"x_max":285,"o":"m 285 986 l 150 986 l 150 743 l 143 743 l 143 986 l 8 986 l 8 735 l 150 735 l 150 572 l 285 572 l 285 986 "},"μ":{"ha":675,"x_min":8,"x_max":667,"o":"m 8 972 l 8 0 l 667 0 l 667 972 l 8 972 m 338 543 l 119 903 l 556 903 l 338 543 m 78 115 l 78 857 l 303 486 l 78 115 m 597 115 l 372 486 l 597 857 l 597 115 m 119 69 l 338 429 l 556 69 l 119 69 "},"ð":{"ha":506,"x_min":8,"x_max":497,"o":"m 8 492 l 8 192 q 67 44 8 101 q 243 -14 126 -14 q 353 4 306 -14 q 433 54 401 22 q 481 130 465 86 q 497 225 497 174 l 497 483 q 441 745 497 635 q 272 924 385 856 l 353 976 l 347 983 l 264 928 q 169 971 219 953 q 58 1000 118 989 l 54 993 q 146 952 107 978 q 215 894 185 926 l 93 813 l 99 806 l 221 888 q 288 775 264 839 q 322 636 311 711 l 321 635 q 283 700 317 678 q 204 722 249 722 q 136 709 171 722 q 73 668 101 696 q 26 597 44 640 q 8 492 8 553 m 244 17 l 244 683 q 253 706 244 706 q 261 683 261 706 l 261 17 q 253 -6 261 -6 q 244 17 244 -6 "},"ß":{"ha":544,"x_min":8,"x_max":539,"o":"m 8 726 l 8 0 l 258 0 l 258 936 q 263 960 258 956 q 272 964 268 964 l 275 964 q 285 960 279 964 q 292 936 292 956 l 292 544 q 290 513 292 525 q 281 501 289 501 l 275 501 l 275 493 l 281 493 q 290 479 289 493 q 292 450 292 465 l 292 51 q 290 19 292 31 q 281 8 289 8 l 275 8 l 275 0 l 282 0 q 474 63 408 0 q 539 239 539 126 l 539 257 q 523 355 539 311 q 483 430 507 399 q 433 478 460 461 q 383 496 406 496 l 383 499 q 432 514 407 499 q 478 558 457 529 q 512 630 499 588 q 525 726 525 672 l 525 733 q 458 910 525 849 q 264 972 390 972 l 244 972 q 64 907 119 972 q 8 726 8 842 "},"¤":{"ha":675,"x_min":8,"x_max":667,"o":"m 8 972 l 8 0 l 667 0 l 667 972 l 8 972 m 338 543 l 119 903 l 556 903 l 338 543 m 78 115 l 78 857 l 303 486 l 78 115 m 597 115 l 372 486 l 597 857 l 597 115 m 119 69 l 338 429 l 556 69 l 119 69 "},"À":{"ha":442,"x_min":4,"x_max":438,"o":"m 319 972 l 122 972 l 4 0 l 15 0 l 51 290 l 151 290 l 188 0 l 438 0 l 319 972 m 151 299 l 51 299 l 100 693 l 103 693 l 151 299 m 249 1028 l 257 1028 l 289 1218 l 108 1218 l 249 1028 "},"Á":{"ha":442,"x_min":4,"x_max":438,"o":"m 319 972 l 122 972 l 4 0 l 15 0 l 51 290 l 151 290 l 188 0 l 438 0 l 319 972 m 151 299 l 51 299 l 100 693 l 103 693 l 151 299 m 185 1028 l 193 1028 l 333 1218 l 153 1218 l 185 1028 "},"Â":{"ha":442,"x_min":4,"x_max":438,"o":"m 319 972 l 122 972 l 4 0 l 15 0 l 51 290 l 151 290 l 188 0 l 438 0 l 319 972 m 151 299 l 51 299 l 100 693 l 103 693 l 151 299 m 81 1032 l 89 1032 l 218 1068 l 221 1068 l 350 1032 l 358 1032 l 224 1222 l 215 1222 l 81 1032 "},"Ã":{"ha":442,"x_min":4,"x_max":438,"o":"m 319 972 l 122 972 l 4 0 l 15 0 l 51 290 l 151 290 l 188 0 l 438 0 l 319 972 m 151 299 l 51 299 l 100 693 l 103 693 l 151 299 m 356 1213 l 356 1215 l 347 1215 l 347 1213 q 338 1181 347 1189 q 314 1172 329 1172 q 276 1180 297 1172 q 232 1196 254 1188 l 228 1197 q 188 1213 207 1206 q 154 1219 169 1219 q 103 1172 121 1219 q 85 1038 85 1125 l 85 1035 l 93 1035 l 93 1036 q 103 1069 93 1060 q 128 1079 113 1079 q 164 1072 143 1079 q 207 1056 185 1065 l 213 1053 q 254 1037 233 1044 q 290 1029 275 1029 q 356 1213 356 1029 "},"Ä":{"ha":442,"x_min":4,"x_max":438,"o":"m 319 972 l 122 972 l 4 0 l 15 0 l 51 290 l 151 290 l 188 0 l 438 0 l 319 972 m 151 299 l 51 299 l 100 693 l 103 693 l 151 299 m 19 1124 q 40 1048 19 1075 q 118 1021 61 1021 q 196 1048 175 1021 q 217 1122 217 1075 q 195 1197 217 1169 q 117 1225 174 1225 q 40 1198 60 1225 q 19 1124 19 1171 m 225 1124 q 246 1048 225 1075 q 324 1021 267 1021 q 401 1048 381 1021 q 422 1122 422 1075 q 401 1197 422 1169 q 322 1225 379 1225 q 245 1198 265 1225 q 225 1124 225 1171 "},"Å":{"ha":442,"x_min":4,"x_max":438,"o":"m 319 972 l 122 972 l 4 0 l 15 0 l 51 290 l 151 290 l 188 0 l 438 0 l 319 972 m 151 299 l 51 299 l 100 693 l 103 693 l 151 299 m 101 1124 q 133 1046 101 1071 q 221 1021 165 1021 q 308 1046 276 1021 q 340 1124 340 1071 q 308 1201 340 1176 q 219 1225 275 1225 q 133 1201 165 1225 q 101 1124 101 1176 m 114 1124 q 142 1192 114 1171 q 219 1214 171 1214 q 299 1192 269 1214 q 328 1124 328 1169 q 299 1053 328 1075 q 221 1032 269 1032 q 143 1053 172 1032 q 114 1124 114 1075 "},"Æ":{"ha":557,"x_min":4,"x_max":549,"o":"m 438 964 l 549 964 l 549 972 l 188 972 l 4 0 l 15 0 l 69 290 l 188 290 l 188 0 l 549 0 l 549 8 l 438 8 l 438 508 l 549 508 l 549 517 l 438 517 l 438 964 m 188 299 l 72 299 l 185 897 l 188 897 l 188 299 "},"Ç":{"ha":533,"x_min":8,"x_max":525,"o":"m 258 17 l 258 956 q 267 978 258 978 q 275 956 275 978 l 275 500 l 525 500 l 525 729 q 457 919 525 853 q 263 986 389 986 q 74 921 139 986 q 8 729 8 856 l 8 244 q 74 52 8 118 q 263 -14 139 -14 q 457 53 389 -14 q 525 244 525 119 l 525 472 l 275 472 l 275 17 q 267 -6 275 -6 q 258 17 258 -6 m 264 -10 l 256 -65 q 351 -94 321 -65 q 381 -157 381 -122 q 351 -224 381 -193 q 264 -254 321 -254 q 215 -247 243 -254 l 215 -256 q 304 -268 264 -268 q 380 -258 346 -268 q 438 -233 414 -249 q 476 -197 463 -217 q 489 -156 489 -176 q 437 -86 489 -117 q 265 -56 385 -56 l 272 -10 l 264 -10 "},"Ð":{"ha":564,"x_min":10,"x_max":556,"o":"m 294 972 l 39 972 l 39 488 l 10 488 l 10 479 l 39 479 l 39 0 l 294 0 q 488 60 419 0 q 556 243 556 119 l 556 729 q 488 912 556 851 q 294 972 419 972 m 289 488 l 289 964 l 292 964 q 304 960 303 964 q 306 942 306 957 l 306 31 q 304 12 306 15 q 292 8 303 8 l 289 8 l 289 479 l 301 479 l 301 488 l 289 488 "},"Đ":{"ha":564,"x_min":10,"x_max":556,"o":"m 294 972 l 39 972 l 39 488 l 10 488 l 10 479 l 39 479 l 39 0 l 294 0 q 488 60 419 0 q 556 243 556 119 l 556 729 q 488 912 556 851 q 294 972 419 972 m 289 488 l 289 964 l 292 964 q 304 960 303 964 q 306 942 306 957 l 306 31 q 304 12 306 15 q 292 8 303 8 l 289 8 l 289 479 l 301 479 l 301 488 l 289 488 "},"È":{"ha":378,"x_min":8,"x_max":369,"o":"m 258 964 l 369 964 l 369 972 l 8 972 l 8 0 l 369 0 l 369 8 l 258 8 l 258 508 l 369 508 l 369 517 l 258 517 l 258 964 m 217 1028 l 225 1028 l 257 1218 l 76 1218 l 217 1028 "},"É":{"ha":378,"x_min":8,"x_max":369,"o":"m 258 964 l 369 964 l 369 972 l 8 972 l 8 0 l 369 0 l 369 8 l 258 8 l 258 508 l 369 508 l 369 517 l 258 517 l 258 964 m 153 1028 l 161 1028 l 301 1218 l 121 1218 l 153 1028 "},"Ê":{"ha":378,"x_min":8,"x_max":369,"o":"m 258 964 l 369 964 l 369 972 l 8 972 l 8 0 l 369 0 l 369 8 l 258 8 l 258 508 l 369 508 l 369 517 l 258 517 l 258 964 m 49 1032 l 57 1032 l 186 1068 l 189 1068 l 318 1032 l 326 1032 l 192 1222 l 183 1222 l 49 1032 "},"Ë":{"ha":378,"x_min":-12,"x_max":390,"o":"m 258 964 l 369 964 l 369 972 l 8 972 l 8 0 l 369 0 l 369 8 l 258 8 l 258 508 l 369 508 l 369 517 l 258 517 l 258 964 m -12 1124 q 8 1048 -12 1075 q 86 1021 29 1021 q 164 1048 143 1021 q 185 1122 185 1075 q 163 1197 185 1169 q 85 1225 142 1225 q 8 1198 28 1225 q -12 1124 -12 1171 m 193 1124 q 214 1048 193 1075 q 292 1021 235 1021 q 369 1048 349 1021 q 390 1122 390 1075 q 369 1197 390 1169 q 290 1225 347 1225 q 213 1198 233 1225 q 193 1124 193 1171 "},"Ì":{"ha":267,"x_min":8,"x_max":258,"o":"m 258 972 l 8 972 l 8 0 l 258 0 l 258 972 m 161 1028 l 169 1028 l 201 1218 l 21 1218 l 161 1028 "},"Í":{"ha":267,"x_min":8,"x_max":258,"o":"m 258 972 l 8 972 l 8 0 l 258 0 l 258 972 m 97 1028 l 106 1028 l 246 1218 l 65 1218 l 97 1028 "},"Î":{"ha":267,"x_min":-7,"x_max":271,"o":"m 258 972 l 8 972 l 8 0 l 258 0 l 258 972 m -7 1032 l 1 1032 l 131 1068 l 133 1068 l 263 1032 l 271 1032 l 136 1222 l 128 1222 l -7 1032 "},"Ï":{"ha":267,"x_min":-68,"x_max":335,"o":"m 258 972 l 8 972 l 8 0 l 258 0 l 258 972 m -68 1124 q -47 1048 -68 1075 q 31 1021 -26 1021 q 108 1048 88 1021 q 129 1122 129 1075 q 108 1197 129 1169 q 29 1225 86 1225 q -48 1198 -28 1225 q -68 1124 -68 1171 m 138 1124 q 158 1048 138 1075 q 236 1021 179 1021 q 314 1048 293 1021 q 335 1122 335 1075 q 313 1197 335 1169 q 235 1225 292 1225 q 158 1198 178 1225 q 138 1124 138 1171 "},"Ł":{"ha":374,"x_min":-47,"x_max":369,"o":"m 258 972 l 8 972 l 8 0 l 369 0 l 369 8 l 258 8 l 258 972 m 317 581 l 313 592 l -47 463 l -44 451 l 317 581 "},"Ñ":{"ha":481,"x_min":8,"x_max":472,"o":"m 472 972 l 464 972 l 464 69 l 461 69 l 261 972 l 8 972 l 8 0 l 17 0 l 17 932 l 19 932 l 222 0 l 472 0 l 472 972 m 375 1213 l 375 1215 l 367 1215 l 367 1213 q 358 1181 367 1189 q 333 1172 349 1172 q 295 1180 317 1172 q 251 1196 274 1188 l 247 1197 q 208 1213 226 1206 q 174 1219 189 1219 q 122 1172 140 1219 q 104 1038 104 1125 l 104 1035 l 113 1035 l 113 1036 q 122 1069 113 1060 q 147 1079 132 1079 q 183 1072 163 1079 q 226 1056 204 1065 l 232 1053 q 274 1037 253 1044 q 310 1029 294 1029 q 375 1213 375 1029 "},"Ò":{"ha":533,"x_min":8,"x_max":525,"o":"m 8 729 l 8 244 q 74 52 8 118 q 263 -14 139 -14 q 457 53 389 -14 q 525 244 525 119 l 525 729 q 457 919 525 853 q 263 986 389 986 q 74 921 139 986 q 8 729 8 856 m 258 17 l 258 956 q 267 978 258 978 q 275 956 275 978 l 275 17 q 267 -6 275 -6 q 258 17 258 -6 m 294 1028 l 303 1028 l 335 1218 l 154 1218 l 294 1028 "},"Ó":{"ha":533,"x_min":8,"x_max":525,"o":"m 8 729 l 8 244 q 74 52 8 118 q 263 -14 139 -14 q 457 53 389 -14 q 525 244 525 119 l 525 729 q 457 919 525 853 q 263 986 389 986 q 74 921 139 986 q 8 729 8 856 m 258 17 l 258 956 q 267 978 258 978 q 275 956 275 978 l 275 17 q 267 -6 275 -6 q 258 17 258 -6 m 231 1028 l 239 1028 l 379 1218 l 199 1218 l 231 1028 "},"Ô":{"ha":533,"x_min":8,"x_max":525,"o":"m 8 729 l 8 244 q 74 52 8 118 q 263 -14 139 -14 q 457 53 389 -14 q 525 244 525 119 l 525 729 q 457 919 525 853 q 263 986 389 986 q 74 921 139 986 q 8 729 8 856 m 258 17 l 258 956 q 267 978 258 978 q 275 956 275 978 l 275 17 q 267 -6 275 -6 q 258 17 258 -6 m 126 1032 l 135 1032 l 264 1068 l 267 1068 l 396 1032 l 404 1032 l 269 1222 l 261 1222 l 126 1032 "},"Õ":{"ha":533,"x_min":8,"x_max":525,"o":"m 8 729 l 8 244 q 74 52 8 118 q 263 -14 139 -14 q 457 53 389 -14 q 525 244 525 119 l 525 729 q 457 919 525 853 q 263 986 389 986 q 74 921 139 986 q 8 729 8 856 m 258 17 l 258 956 q 267 978 258 978 q 275 956 275 978 l 275 17 q 267 -6 275 -6 q 258 17 258 -6 m 401 1213 l 401 1215 l 393 1215 l 393 1213 q 384 1181 393 1189 q 360 1172 375 1172 q 322 1180 343 1172 q 278 1196 300 1188 l 274 1197 q 234 1213 253 1206 q 200 1219 215 1219 q 149 1172 167 1219 q 131 1038 131 1125 l 131 1035 l 139 1035 l 139 1036 q 149 1069 139 1060 q 174 1079 158 1079 q 210 1072 189 1079 q 253 1056 231 1065 l 258 1053 q 300 1037 279 1044 q 336 1029 321 1029 q 401 1213 401 1029 "},"Ö":{"ha":533,"x_min":8,"x_max":525,"o":"m 8 729 l 8 244 q 74 52 8 118 q 263 -14 139 -14 q 457 53 389 -14 q 525 244 525 119 l 525 729 q 457 919 525 853 q 263 986 389 986 q 74 921 139 986 q 8 729 8 856 m 258 17 l 258 956 q 267 978 258 978 q 275 956 275 978 l 275 17 q 267 -6 275 -6 q 258 17 258 -6 m 65 1124 q 86 1048 65 1075 q 164 1021 107 1021 q 242 1048 221 1021 q 263 1122 263 1075 q 241 1197 263 1169 q 163 1225 219 1225 q 85 1198 106 1225 q 65 1124 65 1171 m 271 1124 q 292 1048 271 1075 q 369 1021 313 1021 q 447 1048 426 1021 q 468 1122 468 1075 q 447 1197 468 1169 q 368 1225 425 1225 q 291 1198 311 1225 q 271 1124 271 1171 "},"Ø":{"ha":535,"x_min":8,"x_max":526,"o":"m 8 729 l 8 244 q 54 76 8 139 l 10 -8 l 19 -14 l 61 67 q 263 -14 126 -14 q 457 53 389 -14 q 525 244 525 119 l 525 729 q 481 890 525 826 l 526 981 l 517 986 l 472 900 q 263 986 407 986 q 74 921 139 986 q 8 729 8 856 m 258 479 l 258 956 q 267 978 258 978 q 275 956 275 978 l 275 513 l 258 479 m 258 17 l 258 454 l 275 488 l 275 17 q 267 -6 275 -6 q 258 17 258 -6 "},"Œ":{"ha":644,"x_min":8,"x_max":636,"o":"m 525 964 l 636 964 l 636 972 l 263 972 q 74 907 139 972 q 8 715 8 842 l 8 258 q 74 66 8 132 q 263 0 139 0 l 636 0 l 636 8 l 525 8 l 525 508 l 636 508 l 636 517 l 525 517 l 525 964 m 258 31 l 258 942 q 271 964 258 964 l 275 964 l 275 8 l 272 8 q 258 31 258 8 "},"Š":{"ha":533,"x_min":8,"x_max":525,"o":"m 275 639 l 525 639 l 525 729 q 457 919 525 853 q 263 986 389 986 q 74 921 139 986 q 8 729 8 856 l 8 717 q 14 611 8 656 q 33 533 19 567 q 72 476 47 500 q 132 431 96 451 l 176 406 q 233 372 213 385 q 262 350 253 360 q 273 331 271 340 q 275 306 275 321 l 275 15 q 267 -6 275 -6 q 258 17 258 -6 l 258 333 l 8 333 l 8 244 q 73 52 8 118 q 263 -14 138 -14 q 457 53 389 -14 q 525 244 525 119 l 525 263 q 519 367 525 324 q 501 443 514 411 q 465 499 488 475 q 406 542 442 522 l 368 563 q 306 599 328 585 q 273 623 283 613 q 260 644 263 633 q 258 669 258 654 l 258 956 q 267 978 258 978 q 275 956 275 978 l 275 639 m 406 1218 l 397 1218 l 268 1182 l 265 1182 l 136 1218 l 128 1218 l 263 1028 l 271 1028 l 406 1218 "},"Ù":{"ha":533,"x_min":8,"x_max":525,"o":"m 258 972 l 8 972 l 8 244 q 73 52 8 118 q 263 -14 138 -14 q 457 53 389 -14 q 525 244 525 119 l 525 972 l 275 972 l 275 17 q 267 -6 275 -6 q 258 17 258 -6 l 258 972 m 294 1028 l 303 1028 l 335 1218 l 154 1218 l 294 1028 "},"Ú":{"ha":533,"x_min":8,"x_max":525,"o":"m 258 972 l 8 972 l 8 244 q 73 52 8 118 q 263 -14 138 -14 q 457 53 389 -14 q 525 244 525 119 l 525 972 l 275 972 l 275 17 q 267 -6 275 -6 q 258 17 258 -6 l 258 972 m 231 1028 l 239 1028 l 379 1218 l 199 1218 l 231 1028 "},"Û":{"ha":533,"x_min":8,"x_max":525,"o":"m 258 972 l 8 972 l 8 244 q 73 52 8 118 q 263 -14 138 -14 q 457 53 389 -14 q 525 244 525 119 l 525 972 l 275 972 l 275 17 q 267 -6 275 -6 q 258 17 258 -6 l 258 972 m 126 1032 l 135 1032 l 264 1068 l 267 1068 l 396 1032 l 404 1032 l 269 1222 l 261 1222 l 126 1032 "},"Ü":{"ha":533,"x_min":8,"x_max":525,"o":"m 258 972 l 8 972 l 8 244 q 73 52 8 118 q 263 -14 138 -14 q 457 53 389 -14 q 525 244 525 119 l 525 972 l 275 972 l 275 17 q 267 -6 275 -6 q 258 17 258 -6 l 258 972 m 65 1124 q 86 1048 65 1075 q 164 1021 107 1021 q 242 1048 221 1021 q 263 1122 263 1075 q 241 1197 263 1169 q 163 1225 219 1225 q 85 1198 106 1225 q 65 1124 65 1171 m 271 1124 q 292 1048 271 1075 q 369 1021 313 1021 q 447 1048 426 1021 q 468 1122 468 1075 q 447 1197 468 1169 q 368 1225 425 1225 q 291 1198 311 1225 q 271 1124 271 1171 "},"Ÿ":{"ha":407,"x_min":4,"x_max":413,"o":"m 253 972 l 4 972 l 78 397 l 78 0 l 329 0 l 329 397 l 403 972 l 392 972 l 326 461 l 324 461 l 253 972 m 10 1124 q 31 1048 10 1075 q 108 1021 51 1021 q 186 1048 165 1021 q 207 1122 207 1075 q 185 1197 207 1169 q 107 1225 164 1225 q 30 1198 50 1225 q 10 1124 10 1171 m 215 1124 q 236 1048 215 1075 q 314 1021 257 1021 q 392 1048 371 1021 q 413 1122 413 1075 q 391 1197 413 1169 q 313 1225 369 1225 q 235 1198 256 1225 q 215 1124 215 1171 "},"Ý":{"ha":407,"x_min":4,"x_max":403,"o":"m 253 972 l 4 972 l 78 397 l 78 0 l 329 0 l 329 397 l 403 972 l 392 972 l 326 461 l 324 461 l 253 972 m 175 1028 l 183 1028 l 324 1218 l 143 1218 l 175 1028 "},"Ž":{"ha":468,"x_min":4,"x_max":464,"o":"m 450 972 l 18 972 l 18 964 l 197 964 l 199 961 l 4 8 l 4 0 l 464 0 l 464 8 l 257 8 l 256 11 l 450 964 l 450 972 m 374 1218 l 365 1218 l 236 1182 l 233 1182 l 104 1218 l 96 1218 l 231 1028 l 239 1028 l 374 1218 "},"ﬁ":{"ha":646,"x_min":0,"x_max":644,"o":"m 56 767 l 56 708 l 0 708 l 0 700 l 56 700 l 56 0 l 292 0 l 292 700 l 390 700 l 390 708 l 292 708 l 292 894 q 307 963 292 943 q 354 982 322 982 q 371 981 363 982 q 390 979 379 981 l 390 986 q 319 997 353 993 q 253 1000 285 1000 q 172 990 208 1000 q 110 953 136 979 q 69 881 83 926 q 56 767 56 836 m 392 861 q 426 776 392 803 q 518 749 460 749 q 610 776 576 749 q 644 861 644 803 q 610 947 644 919 q 517 974 575 974 q 425 947 458 974 q 392 861 392 919 m 636 708 l 400 708 l 400 0 l 636 0 l 636 708 "},"ﬂ":{"ha":651,"x_min":0,"x_max":643,"o":"m 56 767 l 56 708 l 0 708 l 0 700 l 56 700 l 56 0 l 292 0 l 292 700 l 390 700 l 390 708 l 292 708 l 292 894 q 307 963 292 943 q 354 982 322 982 q 371 981 363 982 q 390 979 379 981 l 390 986 q 319 997 353 993 q 253 1000 285 1000 q 172 990 208 1000 q 110 953 136 979 q 69 881 83 926 q 56 767 56 836 m 407 1000 l 407 0 l 643 0 l 643 1000 l 407 1000 "},"à":{"ha":506,"x_min":8,"x_max":497,"o":"m 261 692 l 261 382 l 153 382 q 96 371 122 382 q 50 341 69 360 q 19 297 31 322 q 8 242 8 271 l 8 126 q 44 25 8 64 q 135 -14 79 -14 q 258 61 204 -14 l 261 61 l 261 0 l 497 0 l 497 483 q 431 658 497 594 q 250 722 364 722 q 72 659 136 722 q 8 483 8 596 l 8 404 l 244 404 l 244 692 q 253 714 244 714 q 261 692 261 714 m 261 374 l 261 75 q 251 68 257 68 q 244 79 244 68 l 244 363 q 251 374 244 374 l 261 374 m 278 764 l 286 764 l 318 954 l 138 954 l 278 764 "},"á":{"ha":506,"x_min":8,"x_max":497,"o":"m 261 692 l 261 382 l 153 382 q 96 371 122 382 q 50 341 69 360 q 19 297 31 322 q 8 242 8 271 l 8 126 q 44 25 8 64 q 135 -14 79 -14 q 258 61 204 -14 l 261 61 l 261 0 l 497 0 l 497 483 q 431 658 497 594 q 250 722 364 722 q 72 659 136 722 q 8 483 8 596 l 8 404 l 244 404 l 244 692 q 253 714 244 714 q 261 692 261 714 m 261 374 l 261 75 q 251 68 257 68 q 244 79 244 68 l 244 363 q 251 374 244 374 l 261 374 m 214 764 l 222 764 l 363 954 l 182 954 l 214 764 "},"â":{"ha":506,"x_min":8,"x_max":497,"o":"m 261 692 l 261 382 l 153 382 q 96 371 122 382 q 50 341 69 360 q 19 297 31 322 q 8 242 8 271 l 8 126 q 44 25 8 64 q 135 -14 79 -14 q 258 61 204 -14 l 261 61 l 261 0 l 497 0 l 497 483 q 431 658 497 594 q 250 722 364 722 q 72 659 136 722 q 8 483 8 596 l 8 404 l 244 404 l 244 692 q 253 714 244 714 q 261 692 261 714 m 261 374 l 261 75 q 251 68 257 68 q 244 79 244 68 l 244 363 q 251 374 244 374 l 261 374 m 110 768 l 118 768 l 247 804 l 250 804 l 379 768 l 388 768 l 253 958 l 244 958 l 110 768 "},"ã":{"ha":506,"x_min":8,"x_max":497,"o":"m 261 692 l 261 382 l 153 382 q 96 371 122 382 q 50 341 69 360 q 19 297 31 322 q 8 242 8 271 l 8 126 q 44 25 8 64 q 135 -14 79 -14 q 258 61 204 -14 l 261 61 l 261 0 l 497 0 l 497 483 q 431 658 497 594 q 250 722 364 722 q 72 659 136 722 q 8 483 8 596 l 8 404 l 244 404 l 244 692 q 253 714 244 714 q 261 692 261 714 m 261 374 l 261 75 q 251 68 257 68 q 244 79 244 68 l 244 363 q 251 374 244 374 l 261 374 m 385 949 l 385 951 l 376 951 l 376 949 q 367 917 376 925 q 343 908 358 908 q 305 916 326 908 q 261 932 283 924 l 257 933 q 217 949 236 942 q 183 956 199 956 q 132 908 150 956 q 114 774 114 861 l 114 771 l 122 771 l 122 772 q 132 806 122 796 q 157 815 142 815 q 193 808 172 815 q 236 792 214 801 l 242 789 q 283 773 263 781 q 319 765 304 765 q 385 949 385 765 "},"ä":{"ha":506,"x_min":8,"x_max":497,"o":"m 261 692 l 261 382 l 153 382 q 96 371 122 382 q 50 341 69 360 q 19 297 31 322 q 8 242 8 271 l 8 126 q 44 25 8 64 q 135 -14 79 -14 q 258 61 204 -14 l 261 61 l 261 0 l 497 0 l 497 483 q 431 658 497 594 q 250 722 364 722 q 72 659 136 722 q 8 483 8 596 l 8 404 l 244 404 l 244 692 q 253 714 244 714 q 261 692 261 714 m 261 374 l 261 75 q 251 68 257 68 q 244 79 244 68 l 244 363 q 251 374 244 374 l 261 374 m 49 860 q 69 784 49 811 q 147 757 90 757 q 225 784 204 757 q 246 858 246 811 q 224 933 246 906 q 146 961 203 961 q 69 934 89 961 q 49 860 49 907 m 254 860 q 275 784 254 811 q 353 757 296 757 q 431 784 410 757 q 451 858 451 811 q 430 933 451 906 q 351 961 408 961 q 274 934 294 961 q 254 860 254 907 "},"å":{"ha":506,"x_min":8,"x_max":497,"o":"m 261 692 l 261 382 l 153 382 q 96 371 122 382 q 50 341 69 360 q 19 297 31 322 q 8 242 8 271 l 8 126 q 44 25 8 64 q 135 -14 79 -14 q 258 61 204 -14 l 261 61 l 261 0 l 497 0 l 497 483 q 431 658 497 594 q 250 722 364 722 q 72 659 136 722 q 8 483 8 596 l 8 404 l 244 404 l 244 692 q 253 714 244 714 q 261 692 261 714 m 261 374 l 261 75 q 251 68 257 68 q 244 79 244 68 l 244 363 q 251 374 244 374 l 261 374 m 131 860 q 163 782 131 807 q 250 757 194 757 q 338 782 306 757 q 369 860 369 807 q 337 937 369 913 q 249 961 304 961 q 163 937 194 961 q 131 860 131 913 m 143 860 q 172 928 143 907 q 249 950 200 950 q 328 928 299 950 q 357 860 357 906 q 328 790 357 811 q 250 768 299 768 q 172 790 201 768 q 143 860 143 811 "},"æ":{"ha":760,"x_min":8,"x_max":750,"o":"m 261 692 l 261 382 l 153 382 q 96 371 122 382 q 50 341 69 360 q 19 297 31 322 q 8 242 8 271 l 8 126 q 44 25 8 64 q 135 -14 79 -14 q 213 13 176 -14 q 279 101 249 40 l 282 101 q 367 16 308 46 q 503 -14 425 -14 q 683 50 617 -14 q 750 225 750 114 l 750 294 l 514 294 l 514 17 q 506 -6 514 -6 q 497 17 497 -6 l 497 354 l 750 354 l 750 483 q 683 658 750 594 q 503 722 617 722 q 438 715 467 722 q 385 696 410 708 l 368 696 q 314 715 342 708 q 250 722 286 722 q 72 659 136 722 q 8 483 8 596 l 8 404 l 244 404 l 244 692 q 253 714 244 714 q 261 692 261 714 m 497 363 l 497 692 q 506 714 497 714 q 514 692 514 714 l 514 363 l 497 363 m 261 374 l 261 111 q 258 82 261 88 q 251 76 254 76 q 244 88 244 76 l 244 363 q 251 374 244 374 l 261 374 "},"ç":{"ha":506,"x_min":8,"x_max":497,"o":"m 244 17 l 244 692 q 253 714 244 714 q 261 692 261 714 l 261 414 l 497 414 l 497 483 q 431 658 497 594 q 250 722 364 722 q 72 659 136 722 q 8 483 8 596 l 8 225 q 72 49 8 113 q 250 -14 136 -14 q 431 50 364 -14 q 497 225 497 114 l 497 294 l 261 294 l 261 17 q 253 -6 261 -6 q 244 17 244 -6 m 250 -10 l 242 -65 q 337 -94 307 -65 q 367 -157 367 -122 q 337 -224 367 -193 q 250 -254 307 -254 q 201 -247 229 -254 l 201 -256 q 290 -268 250 -268 q 366 -258 332 -268 q 424 -233 400 -249 q 462 -197 449 -217 q 475 -156 475 -176 q 423 -86 475 -117 q 251 -56 371 -56 l 258 -10 l 250 -10 "},"đ":{"ha":506,"x_min":8,"x_max":539,"o":"m 261 0 l 497 0 l 497 1000 l 261 1000 l 261 674 l 258 675 q 203 710 235 699 q 135 722 171 722 q 44 685 79 722 q 8 560 8 647 l 8 199 q 17 99 8 140 q 40 33 25 58 q 76 -3 56 8 q 121 -14 97 -14 q 193 4 156 -14 q 258 49 231 22 l 261 49 l 261 0 m 261 661 l 261 61 q 251 54 257 54 q 244 67 244 54 l 244 657 q 251 668 244 668 q 261 661 257 668 m 539 853 l 539 861 l 192 861 l 192 853 l 539 853 "},"è":{"ha":506,"x_min":8,"x_max":497,"o":"m 497 294 l 261 294 l 261 17 q 253 -6 261 -6 q 244 17 244 -6 l 244 354 l 497 354 l 497 483 q 431 658 497 594 q 250 722 364 722 q 72 659 136 722 q 8 483 8 596 l 8 225 q 72 49 8 113 q 250 -14 136 -14 q 431 50 364 -14 q 497 225 497 114 l 497 294 m 244 363 l 244 692 q 253 714 244 714 q 261 692 261 714 l 261 363 l 244 363 m 278 764 l 286 764 l 318 954 l 138 954 l 278 764 "},"é":{"ha":506,"x_min":8,"x_max":497,"o":"m 497 294 l 261 294 l 261 17 q 253 -6 261 -6 q 244 17 244 -6 l 244 354 l 497 354 l 497 483 q 431 658 497 594 q 250 722 364 722 q 72 659 136 722 q 8 483 8 596 l 8 225 q 72 49 8 113 q 250 -14 136 -14 q 431 50 364 -14 q 497 225 497 114 l 497 294 m 244 363 l 244 692 q 253 714 244 714 q 261 692 261 714 l 261 363 l 244 363 m 214 764 l 222 764 l 363 954 l 182 954 l 214 764 "},"ê":{"ha":506,"x_min":8,"x_max":497,"o":"m 497 294 l 261 294 l 261 17 q 253 -6 261 -6 q 244 17 244 -6 l 244 354 l 497 354 l 497 483 q 431 658 497 594 q 250 722 364 722 q 72 659 136 722 q 8 483 8 596 l 8 225 q 72 49 8 113 q 250 -14 136 -14 q 431 50 364 -14 q 497 225 497 114 l 497 294 m 244 363 l 244 692 q 253 714 244 714 q 261 692 261 714 l 261 363 l 244 363 m 110 768 l 118 768 l 247 804 l 250 804 l 379 768 l 388 768 l 253 958 l 244 958 l 110 768 "},"ë":{"ha":506,"x_min":8,"x_max":497,"o":"m 497 294 l 261 294 l 261 17 q 253 -6 261 -6 q 244 17 244 -6 l 244 354 l 497 354 l 497 483 q 431 658 497 594 q 250 722 364 722 q 72 659 136 722 q 8 483 8 596 l 8 225 q 72 49 8 113 q 250 -14 136 -14 q 431 50 364 -14 q 497 225 497 114 l 497 294 m 244 363 l 244 692 q 253 714 244 714 q 261 692 261 714 l 261 363 l 244 363 m 49 860 q 69 784 49 811 q 147 757 90 757 q 225 784 204 757 q 246 858 246 811 q 224 933 246 906 q 146 961 203 961 q 69 934 89 961 q 49 860 49 907 m 254 860 q 275 784 254 811 q 353 757 296 757 q 431 784 410 757 q 451 858 451 811 q 430 933 451 906 q 351 961 408 961 q 274 934 294 961 q 254 860 254 907 "},"ì":{"ha":256,"x_min":10,"x_max":246,"o":"m 246 708 l 10 708 l 10 0 l 246 0 l 246 708 m 156 764 l 164 764 l 196 954 l 15 954 l 156 764 "},"í":{"ha":256,"x_min":10,"x_max":246,"o":"m 246 708 l 10 708 l 10 0 l 246 0 l 246 708 m 92 764 l 100 764 l 240 954 l 60 954 l 92 764 "},"î":{"ha":256,"x_min":-12,"x_max":265,"o":"m 246 708 l 10 708 l 10 0 l 246 0 l 246 708 m -12 768 l -4 768 l 125 804 l 128 804 l 257 768 l 265 768 l 131 958 l 122 958 l -12 768 "},"ï":{"ha":419,"x_min":8,"x_max":411,"o":"m 328 708 l 92 708 l 92 0 l 328 0 l 328 708 m 8 860 q 29 784 8 811 q 107 757 50 757 q 185 784 164 757 q 206 858 206 811 q 184 933 206 906 q 106 961 163 961 q 28 934 49 961 q 8 860 8 907 m 214 860 q 235 784 214 811 q 313 757 256 757 q 390 784 369 757 q 411 858 411 811 q 390 933 411 906 q 311 961 368 961 q 234 934 254 961 q 214 860 214 907 "},"ł":{"ha":253,"x_min":-56,"x_max":308,"o":"m 8 1000 l 8 0 l 244 0 l 244 1000 l 8 1000 m 308 558 l 304 569 l -56 440 l -53 429 l 308 558 "},"ñ":{"ha":506,"x_min":8,"x_max":497,"o":"m 8 708 l 8 0 l 244 0 l 244 633 q 254 640 249 640 q 261 629 261 640 l 261 0 l 497 0 l 497 540 q 487 624 497 589 q 459 681 476 658 q 419 713 442 703 q 371 722 396 722 q 306 704 335 722 q 247 647 278 686 l 244 647 l 244 708 l 8 708 m 389 949 l 389 951 l 381 951 l 381 949 q 372 917 381 925 q 347 908 363 908 q 309 916 331 908 q 265 932 288 924 l 261 933 q 222 949 240 942 q 188 956 203 956 q 136 908 154 956 q 118 774 118 861 l 118 771 l 126 771 l 126 772 q 136 806 126 796 q 161 815 146 815 q 197 808 176 815 q 240 792 218 801 l 246 789 q 288 773 267 781 q 324 765 308 765 q 389 949 389 765 "},"ò":{"ha":506,"x_min":8,"x_max":497,"o":"m 8 483 l 8 225 q 69 53 8 121 q 250 -14 129 -14 q 357 4 311 -14 q 434 54 403 22 q 481 130 465 86 q 497 225 497 174 l 497 483 q 481 578 497 535 q 434 654 465 622 q 357 704 403 686 q 250 722 311 722 q 69 655 129 722 q 8 483 8 588 m 244 17 l 244 692 q 253 714 244 714 q 261 692 261 714 l 261 17 q 253 -6 261 -6 q 244 17 244 -6 m 278 764 l 286 764 l 318 954 l 138 954 l 278 764 "},"ó":{"ha":506,"x_min":8,"x_max":497,"o":"m 8 483 l 8 225 q 69 53 8 121 q 250 -14 129 -14 q 357 4 311 -14 q 434 54 403 22 q 481 130 465 86 q 497 225 497 174 l 497 483 q 481 578 497 535 q 434 654 465 622 q 357 704 403 686 q 250 722 311 722 q 69 655 129 722 q 8 483 8 588 m 244 17 l 244 692 q 253 714 244 714 q 261 692 261 714 l 261 17 q 253 -6 261 -6 q 244 17 244 -6 m 214 764 l 222 764 l 363 954 l 182 954 l 214 764 "},"ô":{"ha":506,"x_min":8,"x_max":497,"o":"m 8 483 l 8 225 q 69 53 8 121 q 250 -14 129 -14 q 357 4 311 -14 q 434 54 403 22 q 481 130 465 86 q 497 225 497 174 l 497 483 q 481 578 497 535 q 434 654 465 622 q 357 704 403 686 q 250 722 311 722 q 69 655 129 722 q 8 483 8 588 m 244 17 l 244 692 q 253 714 244 714 q 261 692 261 714 l 261 17 q 253 -6 261 -6 q 244 17 244 -6 m 110 768 l 118 768 l 247 804 l 250 804 l 379 768 l 388 768 l 253 958 l 244 958 l 110 768 "},"õ":{"ha":506,"x_min":8,"x_max":497,"o":"m 8 483 l 8 225 q 69 53 8 121 q 250 -14 129 -14 q 357 4 311 -14 q 434 54 403 22 q 481 130 465 86 q 497 225 497 174 l 497 483 q 481 578 497 535 q 434 654 465 622 q 357 704 403 686 q 250 722 311 722 q 69 655 129 722 q 8 483 8 588 m 244 17 l 244 692 q 253 714 244 714 q 261 692 261 714 l 261 17 q 253 -6 261 -6 q 244 17 244 -6 m 385 949 l 385 951 l 376 951 l 376 949 q 367 917 376 925 q 343 908 358 908 q 305 916 326 908 q 261 932 283 924 l 257 933 q 217 949 236 942 q 183 956 199 956 q 132 908 150 956 q 114 774 114 861 l 114 771 l 122 771 l 122 772 q 132 806 122 796 q 157 815 142 815 q 193 808 172 815 q 236 792 214 801 l 242 789 q 283 773 263 781 q 319 765 304 765 q 385 949 385 765 "},"ö":{"ha":506,"x_min":8,"x_max":497,"o":"m 8 483 l 8 225 q 69 53 8 121 q 250 -14 129 -14 q 357 4 311 -14 q 434 54 403 22 q 481 130 465 86 q 497 225 497 174 l 497 483 q 481 578 497 535 q 434 654 465 622 q 357 704 403 686 q 250 722 311 722 q 69 655 129 722 q 8 483 8 588 m 244 17 l 244 692 q 253 714 244 714 q 261 692 261 714 l 261 17 q 253 -6 261 -6 q 244 17 244 -6 m 49 860 q 69 784 49 811 q 147 757 90 757 q 225 784 204 757 q 246 858 246 811 q 224 933 246 906 q 146 961 203 961 q 69 934 89 961 q 49 860 49 907 m 254 860 q 275 784 254 811 q 353 757 296 757 q 431 784 410 757 q 451 858 451 811 q 430 933 451 906 q 351 961 408 961 q 274 934 294 961 q 254 860 254 907 "},"ø":{"ha":506,"x_min":8,"x_max":497,"o":"m 8 483 l 8 225 q 58 65 8 128 l 10 -8 l 19 -14 l 65 57 q 142 5 96 24 q 250 -14 188 -14 q 357 4 311 -14 q 434 54 403 22 q 481 130 465 86 q 497 225 497 174 l 497 483 q 485 569 497 529 q 447 639 472 608 l 497 717 l 488 722 l 439 649 q 361 703 408 683 q 250 722 314 722 q 69 655 129 722 q 8 483 8 588 m 244 350 l 244 692 q 253 714 244 714 q 261 692 261 714 l 261 376 l 244 350 m 244 17 l 244 331 l 261 356 l 261 17 q 253 -6 261 -6 q 244 17 244 -6 "},"œ":{"ha":758,"x_min":8,"x_max":750,"o":"m 8 483 l 8 225 q 69 53 8 121 q 250 -14 129 -14 q 375 13 322 -14 l 378 13 q 503 -14 433 -14 q 683 50 617 -14 q 750 225 750 114 l 750 294 l 514 294 l 514 17 q 506 -6 514 -6 q 497 17 497 -6 l 497 354 l 750 354 l 750 483 q 683 658 750 594 q 503 722 617 722 q 378 696 433 722 l 375 696 q 250 722 322 722 q 69 655 129 722 q 8 483 8 588 m 244 17 l 244 692 q 253 714 244 714 q 261 692 261 714 l 261 17 q 253 -6 261 -6 q 244 17 244 -6 m 497 363 l 497 692 q 506 714 497 714 q 514 692 514 714 l 514 363 l 497 363 "},"Þ":{"ha":533,"x_min":8,"x_max":525,"o":"m 258 972 l 8 972 l 8 0 l 258 0 l 258 196 l 261 196 q 378 210 328 196 q 460 256 428 224 q 509 343 493 289 q 525 478 525 397 l 525 481 q 457 706 525 635 q 264 778 389 778 l 258 778 l 258 972 m 258 204 l 258 769 l 261 769 q 274 766 272 769 q 275 750 275 763 l 275 226 q 274 208 275 211 q 261 204 272 204 l 258 204 "},"š":{"ha":506,"x_min":8,"x_max":497,"o":"m 261 467 l 497 467 l 497 496 q 481 584 497 543 q 434 656 465 625 q 357 704 403 686 q 251 722 311 722 q 147 705 192 722 q 71 658 101 688 q 25 591 40 629 q 10 511 10 553 l 10 489 q 34 378 10 418 q 118 311 58 339 l 218 265 q 253 243 246 253 q 260 207 260 233 l 260 21 q 251 -4 260 -4 q 244 21 244 -4 l 244 242 l 8 242 l 8 214 q 24 125 8 167 q 69 52 39 83 q 144 3 100 21 q 249 -14 189 -14 q 355 3 308 -14 q 433 50 401 21 q 480 117 464 79 q 496 197 496 156 l 496 219 q 467 330 496 290 q 381 399 439 369 l 282 447 q 252 467 258 458 q 246 496 246 476 l 246 689 q 254 714 246 714 q 261 689 261 714 l 261 467 m 389 954 l 381 954 l 251 918 l 249 918 l 119 954 l 111 954 l 246 764 l 254 764 l 389 954 "},"ù":{"ha":506,"x_min":8,"x_max":497,"o":"m 497 0 l 497 708 l 261 708 l 261 75 q 251 68 257 68 q 244 79 244 68 l 244 708 l 8 708 l 8 168 q 46 28 8 71 q 135 -14 83 -14 q 199 4 171 -14 q 260 61 228 22 l 261 61 l 261 0 l 497 0 m 278 764 l 286 764 l 318 954 l 138 954 l 278 764 "},"ú":{"ha":506,"x_min":8,"x_max":497,"o":"m 497 0 l 497 708 l 261 708 l 261 75 q 251 68 257 68 q 244 79 244 68 l 244 708 l 8 708 l 8 168 q 46 28 8 71 q 135 -14 83 -14 q 199 4 171 -14 q 260 61 228 22 l 261 61 l 261 0 l 497 0 m 214 764 l 222 764 l 363 954 l 182 954 l 214 764 "},"û":{"ha":506,"x_min":8,"x_max":497,"o":"m 497 0 l 497 708 l 261 708 l 261 75 q 251 68 257 68 q 244 79 244 68 l 244 708 l 8 708 l 8 168 q 46 28 8 71 q 135 -14 83 -14 q 199 4 171 -14 q 260 61 228 22 l 261 61 l 261 0 l 497 0 m 110 768 l 118 768 l 247 804 l 250 804 l 379 768 l 388 768 l 253 958 l 244 958 l 110 768 "},"ü":{"ha":506,"x_min":8,"x_max":497,"o":"m 497 0 l 497 708 l 261 708 l 261 75 q 251 68 257 68 q 244 79 244 68 l 244 708 l 8 708 l 8 168 q 46 28 8 71 q 135 -14 83 -14 q 199 4 171 -14 q 260 61 228 22 l 261 61 l 261 0 l 497 0 m 49 860 q 69 784 49 811 q 147 757 90 757 q 225 784 204 757 q 246 858 246 811 q 224 933 246 906 q 146 961 203 961 q 69 934 89 961 q 49 860 49 907 m 254 860 q 275 784 254 811 q 353 757 296 757 q 431 784 410 757 q 451 858 451 811 q 430 933 451 906 q 351 961 408 961 q 274 934 294 961 q 254 860 254 907 "},"ý":{"ha":506,"x_min":8,"x_max":497,"o":"m 497 -81 l 497 708 l 261 708 l 261 75 q 251 68 257 68 q 244 79 244 68 l 244 708 l 8 708 l 8 168 q 46 28 8 71 q 135 -14 83 -14 q 199 4 171 -14 q 260 61 228 22 l 261 61 l 261 -258 q 253 -283 261 -283 q 244 -261 244 -283 l 244 -36 l 8 -36 l 8 -81 q 72 -236 8 -181 q 254 -292 136 -292 q 435 -237 372 -292 q 497 -81 497 -182 m 214 764 l 222 764 l 363 954 l 182 954 l 214 764 "},"ÿ":{"ha":506,"x_min":8,"x_max":497,"o":"m 497 -81 l 497 708 l 261 708 l 261 75 q 251 68 257 68 q 244 79 244 68 l 244 708 l 8 708 l 8 168 q 46 28 8 71 q 135 -14 83 -14 q 199 4 171 -14 q 260 61 228 22 l 261 61 l 261 -258 q 253 -283 261 -283 q 244 -261 244 -283 l 244 -36 l 8 -36 l 8 -81 q 72 -236 8 -181 q 254 -292 136 -292 q 435 -237 372 -292 q 497 -81 497 -182 m 49 860 q 69 784 49 811 q 147 757 90 757 q 225 784 204 757 q 246 858 246 811 q 224 933 246 906 q 146 961 203 961 q 69 934 89 961 q 49 860 49 907 m 254 860 q 275 784 254 811 q 353 757 296 757 q 431 784 410 757 q 451 858 451 811 q 430 933 451 906 q 351 961 408 961 q 274 934 294 961 q 254 860 254 907 "},"ž":{"ha":449,"x_min":6,"x_max":443,"o":"m 6 0 l 443 0 l 443 8 l 247 8 l 246 11 l 425 700 l 425 708 l 25 708 l 25 700 l 185 700 l 186 697 l 6 8 l 6 0 m 364 953 l 356 953 l 226 917 l 224 917 l 94 953 l 86 953 l 221 763 l 229 763 l 364 953 "},"þ":{"ha":506,"x_min":8,"x_max":497,"o":"m 8 1000 l 8 -292 l 244 -292 l 244 61 l 247 61 q 368 -14 301 -14 q 463 38 428 -14 q 497 178 497 89 l 497 540 q 464 674 497 626 q 371 722 431 722 q 247 647 301 722 l 244 647 l 244 1000 l 8 1000 m 244 75 l 244 633 q 254 640 249 640 q 261 629 261 640 l 261 82 q 254 68 261 68 q 244 75 249 68 "},"Ā":{"ha":442,"x_min":4,"x_max":438,"o":"m 319 972 l 122 972 l 4 0 l 15 0 l 51 290 l 151 290 l 188 0 l 438 0 l 319 972 m 151 299 l 51 299 l 100 693 l 103 693 l 151 299 m 374 1117 l 374 1125 l 68 1125 l 68 1117 l 374 1117 "},"ā":{"ha":506,"x_min":8,"x_max":497,"o":"m 261 692 l 261 382 l 153 382 q 96 371 122 382 q 50 341 69 360 q 19 297 31 322 q 8 242 8 271 l 8 126 q 44 25 8 64 q 135 -14 79 -14 q 258 61 204 -14 l 261 61 l 261 0 l 497 0 l 497 483 q 431 658 497 594 q 250 722 364 722 q 72 659 136 722 q 8 483 8 596 l 8 404 l 244 404 l 244 692 q 253 714 244 714 q 261 692 261 714 m 261 374 l 261 75 q 251 68 257 68 q 244 79 244 68 l 244 363 q 251 374 244 374 l 261 374 m 403 853 l 403 861 l 97 861 l 97 853 l 403 853 "},"Ă":{"ha":442,"x_min":4,"x_max":438,"o":"m 319 972 l 122 972 l 4 0 l 15 0 l 51 290 l 151 290 l 188 0 l 438 0 l 319 972 m 151 299 l 51 299 l 100 693 l 103 693 l 151 299 m 74 1218 l 65 1218 q 79 1130 65 1167 q 115 1071 93 1093 q 165 1038 138 1049 q 221 1028 193 1028 q 276 1038 249 1028 q 326 1071 304 1049 q 363 1130 349 1093 q 376 1218 376 1167 l 367 1218 q 325 1158 367 1178 q 221 1139 283 1139 q 116 1158 158 1139 q 74 1218 74 1178 "},"ă":{"ha":506,"x_min":8,"x_max":497,"o":"m 261 692 l 261 382 l 153 382 q 96 371 122 382 q 50 341 69 360 q 19 297 31 322 q 8 242 8 271 l 8 126 q 44 25 8 64 q 135 -14 79 -14 q 258 61 204 -14 l 261 61 l 261 0 l 497 0 l 497 483 q 431 658 497 594 q 250 722 364 722 q 72 659 136 722 q 8 483 8 596 l 8 404 l 244 404 l 244 692 q 253 714 244 714 q 261 692 261 714 m 261 374 l 261 75 q 251 68 257 68 q 244 79 244 68 l 244 363 q 251 374 244 374 l 261 374 m 103 954 l 94 954 q 108 866 94 903 q 144 807 122 829 q 194 774 167 785 q 250 764 222 764 q 306 774 278 764 q 356 807 333 785 q 392 866 378 829 q 406 954 406 903 l 396 954 q 354 894 396 914 q 250 875 313 875 q 145 894 188 875 q 103 954 103 914 "},"Ą":{"ha":442,"x_min":4,"x_max":438,"o":"m 319 972 l 122 972 l 4 0 l 15 0 l 51 290 l 151 290 l 188 0 l 438 0 l 319 972 m 151 299 l 51 299 l 100 693 l 103 693 l 151 299 m 435 7 q 335 -7 378 7 q 263 -43 292 -21 q 219 -93 233 -65 q 204 -147 204 -121 q 236 -220 204 -189 q 335 -251 268 -251 q 438 -233 382 -251 l 438 -226 q 403 -231 419 -231 q 329 -199 354 -231 q 304 -126 304 -167 q 313 -82 304 -104 q 337 -42 321 -60 q 377 -13 353 -25 q 435 0 401 -1 l 435 7 "},"ą":{"ha":506,"x_min":8,"x_max":497,"o":"m 261 692 l 261 382 l 153 382 q 96 371 122 382 q 50 341 69 360 q 19 297 31 322 q 8 242 8 271 l 8 126 q 44 25 8 64 q 135 -14 79 -14 q 258 61 204 -14 l 261 61 l 261 0 l 497 0 l 497 483 q 431 658 497 594 q 250 722 364 722 q 72 659 136 722 q 8 483 8 596 l 8 404 l 244 404 l 244 692 q 253 714 244 714 q 261 692 261 714 m 261 374 l 261 75 q 251 68 257 68 q 244 79 244 68 l 244 363 q 251 374 244 374 l 261 374 m 494 7 q 394 -7 438 7 q 322 -43 351 -21 q 278 -93 293 -65 q 264 -147 264 -121 q 296 -220 264 -189 q 394 -251 328 -251 q 497 -233 442 -251 l 497 -226 q 463 -231 479 -231 q 389 -199 414 -231 q 364 -126 364 -167 q 372 -82 364 -104 q 397 -42 381 -60 q 437 -13 413 -25 q 494 0 461 -1 l 494 7 "},"Ć":{"ha":533,"x_min":8,"x_max":525,"o":"m 258 17 l 258 956 q 267 978 258 978 q 275 956 275 978 l 275 500 l 525 500 l 525 729 q 457 919 525 853 q 263 986 389 986 q 74 921 139 986 q 8 729 8 856 l 8 244 q 74 52 8 118 q 263 -14 139 -14 q 457 53 389 -14 q 525 244 525 119 l 525 472 l 275 472 l 275 17 q 267 -6 275 -6 q 258 17 258 -6 m 231 1028 l 239 1028 l 379 1218 l 199 1218 l 231 1028 "},"ć":{"ha":506,"x_min":8,"x_max":497,"o":"m 244 17 l 244 692 q 253 714 244 714 q 261 692 261 714 l 261 414 l 497 414 l 497 483 q 431 658 497 594 q 250 722 364 722 q 72 659 136 722 q 8 483 8 596 l 8 225 q 72 49 8 113 q 250 -14 136 -14 q 431 50 364 -14 q 497 225 497 114 l 497 294 l 261 294 l 261 17 q 253 -6 261 -6 q 244 17 244 -6 m 214 764 l 222 764 l 363 954 l 182 954 l 214 764 "},"Ĉ":{"ha":533,"x_min":8,"x_max":525,"o":"m 258 17 l 258 956 q 267 978 258 978 q 275 956 275 978 l 275 500 l 525 500 l 525 729 q 457 919 525 853 q 263 986 389 986 q 74 921 139 986 q 8 729 8 856 l 8 244 q 74 52 8 118 q 263 -14 139 -14 q 457 53 389 -14 q 525 244 525 119 l 525 472 l 275 472 l 275 17 q 267 -6 275 -6 q 258 17 258 -6 m 126 1032 l 135 1032 l 264 1068 l 267 1068 l 396 1032 l 404 1032 l 269 1222 l 261 1222 l 126 1032 "},"ĉ":{"ha":506,"x_min":8,"x_max":497,"o":"m 244 17 l 244 692 q 253 714 244 714 q 261 692 261 714 l 261 414 l 497 414 l 497 483 q 431 658 497 594 q 250 722 364 722 q 72 659 136 722 q 8 483 8 596 l 8 225 q 72 49 8 113 q 250 -14 136 -14 q 431 50 364 -14 q 497 225 497 114 l 497 294 l 261 294 l 261 17 q 253 -6 261 -6 q 244 17 244 -6 m 110 768 l 118 768 l 247 804 l 250 804 l 379 768 l 388 768 l 253 958 l 244 958 l 110 768 "},"Ċ":{"ha":533,"x_min":8,"x_max":525,"o":"m 258 17 l 258 956 q 267 978 258 978 q 275 956 275 978 l 275 500 l 525 500 l 525 729 q 457 919 525 853 q 263 986 389 986 q 74 921 139 986 q 8 729 8 856 l 8 244 q 74 52 8 118 q 263 -14 139 -14 q 457 53 389 -14 q 525 244 525 119 l 525 472 l 275 472 l 275 17 q 267 -6 275 -6 q 258 17 258 -6 m 168 1124 q 189 1048 168 1075 q 267 1021 210 1021 q 344 1048 324 1021 q 365 1122 365 1075 q 344 1197 365 1169 q 265 1225 322 1225 q 188 1198 208 1225 q 168 1124 168 1171 "},"ċ":{"ha":506,"x_min":8,"x_max":497,"o":"m 244 17 l 244 692 q 253 714 244 714 q 261 692 261 714 l 261 414 l 497 414 l 497 483 q 431 658 497 594 q 250 722 364 722 q 72 659 136 722 q 8 483 8 596 l 8 225 q 72 49 8 113 q 250 -14 136 -14 q 431 50 364 -14 q 497 225 497 114 l 497 294 l 261 294 l 261 17 q 253 -6 261 -6 q 244 17 244 -6 m 151 860 q 172 784 151 811 q 250 757 193 757 q 328 784 307 757 q 349 858 349 811 q 327 933 349 906 q 249 961 306 961 q 172 934 192 961 q 151 860 151 907 "},"Č":{"ha":533,"x_min":8,"x_max":525,"o":"m 258 17 l 258 956 q 267 978 258 978 q 275 956 275 978 l 275 500 l 525 500 l 525 729 q 457 919 525 853 q 263 986 389 986 q 74 921 139 986 q 8 729 8 856 l 8 244 q 74 52 8 118 q 263 -14 139 -14 q 457 53 389 -14 q 525 244 525 119 l 525 472 l 275 472 l 275 17 q 267 -6 275 -6 q 258 17 258 -6 m 406 1218 l 397 1218 l 268 1182 l 265 1182 l 136 1218 l 128 1218 l 263 1028 l 271 1028 l 406 1218 "},"č":{"ha":506,"x_min":8,"x_max":497,"o":"m 244 17 l 244 692 q 253 714 244 714 q 261 692 261 714 l 261 414 l 497 414 l 497 483 q 431 658 497 594 q 250 722 364 722 q 72 659 136 722 q 8 483 8 596 l 8 225 q 72 49 8 113 q 250 -14 136 -14 q 431 50 364 -14 q 497 225 497 114 l 497 294 l 261 294 l 261 17 q 253 -6 261 -6 q 244 17 244 -6 m 389 954 l 381 954 l 251 918 l 249 918 l 119 954 l 111 954 l 246 764 l 254 764 l 389 954 "},"Ď":{"ha":533,"x_min":8,"x_max":525,"o":"m 264 972 l 8 972 l 8 0 l 264 0 q 457 60 389 0 q 525 243 525 119 l 525 729 q 457 912 525 851 q 264 972 389 972 m 258 8 l 258 964 l 261 964 q 274 960 272 964 q 275 942 275 957 l 275 31 q 274 12 275 15 q 261 8 272 8 l 258 8 m 392 1218 l 383 1218 l 254 1182 l 251 1182 l 122 1218 l 114 1218 l 249 1028 l 257 1028 l 392 1218 "},"ď":{"ha":506,"x_min":8,"x_max":690,"o":"m 261 0 l 497 0 l 497 1000 l 261 1000 l 261 674 l 258 675 q 203 710 235 699 q 135 722 171 722 q 44 685 79 722 q 8 560 8 647 l 8 199 q 17 99 8 140 q 40 33 25 58 q 76 -3 56 8 q 121 -14 97 -14 q 193 4 156 -14 q 258 49 231 22 l 261 49 l 261 0 m 261 661 l 261 61 q 251 54 257 54 q 244 67 244 54 l 244 657 q 251 668 244 668 q 261 661 257 668 m 529 1000 l 515 657 l 546 657 l 690 1000 l 529 1000 "},"Ē":{"ha":378,"x_min":8,"x_max":369,"o":"m 258 964 l 369 964 l 369 972 l 8 972 l 8 0 l 369 0 l 369 8 l 258 8 l 258 508 l 369 508 l 369 517 l 258 517 l 258 964 m 342 1117 l 342 1125 l 36 1125 l 36 1117 l 342 1117 "},"ē":{"ha":506,"x_min":8,"x_max":497,"o":"m 497 294 l 261 294 l 261 17 q 253 -6 261 -6 q 244 17 244 -6 l 244 354 l 497 354 l 497 483 q 431 658 497 594 q 250 722 364 722 q 72 659 136 722 q 8 483 8 596 l 8 225 q 72 49 8 113 q 250 -14 136 -14 q 431 50 364 -14 q 497 225 497 114 l 497 294 m 244 363 l 244 692 q 253 714 244 714 q 261 692 261 714 l 261 363 l 244 363 m 403 853 l 403 861 l 97 861 l 97 853 l 403 853 "},"Ĕ":{"ha":378,"x_min":8,"x_max":369,"o":"m 258 964 l 369 964 l 369 972 l 8 972 l 8 0 l 369 0 l 369 8 l 258 8 l 258 508 l 369 508 l 369 517 l 258 517 l 258 964 m 42 1218 l 33 1218 q 47 1130 33 1167 q 83 1071 61 1093 q 133 1038 106 1049 q 189 1028 161 1028 q 244 1038 217 1028 q 294 1071 272 1049 q 331 1130 317 1093 q 344 1218 344 1167 l 335 1218 q 293 1158 335 1178 q 189 1139 251 1139 q 84 1158 126 1139 q 42 1218 42 1178 "},"ĕ":{"ha":506,"x_min":8,"x_max":497,"o":"m 497 294 l 261 294 l 261 17 q 253 -6 261 -6 q 244 17 244 -6 l 244 354 l 497 354 l 497 483 q 431 658 497 594 q 250 722 364 722 q 72 659 136 722 q 8 483 8 596 l 8 225 q 72 49 8 113 q 250 -14 136 -14 q 431 50 364 -14 q 497 225 497 114 l 497 294 m 244 363 l 244 692 q 253 714 244 714 q 261 692 261 714 l 261 363 l 244 363 m 103 954 l 94 954 q 108 866 94 903 q 144 807 122 829 q 194 774 167 785 q 250 764 222 764 q 306 774 278 764 q 356 807 333 785 q 392 866 378 829 q 406 954 406 903 l 396 954 q 354 894 396 914 q 250 875 313 875 q 145 894 188 875 q 103 954 103 914 "},"Ė":{"ha":378,"x_min":8,"x_max":369,"o":"m 258 964 l 369 964 l 369 972 l 8 972 l 8 0 l 369 0 l 369 8 l 258 8 l 258 508 l 369 508 l 369 517 l 258 517 l 258 964 m 90 1124 q 111 1048 90 1075 q 189 1021 132 1021 q 267 1048 246 1021 q 288 1122 288 1075 q 266 1197 288 1169 q 188 1225 244 1225 q 110 1198 131 1225 q 90 1124 90 1171 "},"ė":{"ha":506,"x_min":8,"x_max":497,"o":"m 497 294 l 261 294 l 261 17 q 253 -6 261 -6 q 244 17 244 -6 l 244 354 l 497 354 l 497 483 q 431 658 497 594 q 250 722 364 722 q 72 659 136 722 q 8 483 8 596 l 8 225 q 72 49 8 113 q 250 -14 136 -14 q 431 50 364 -14 q 497 225 497 114 l 497 294 m 244 363 l 244 692 q 253 714 244 714 q 261 692 261 714 l 261 363 l 244 363 m 151 860 q 172 784 151 811 q 250 757 193 757 q 328 784 307 757 q 349 858 349 811 q 327 933 349 906 q 249 961 306 961 q 172 934 192 961 q 151 860 151 907 "},"Ę":{"ha":378,"x_min":8,"x_max":371,"o":"m 258 964 l 369 964 l 369 972 l 8 972 l 8 0 l 369 0 l 369 8 l 258 8 l 258 508 l 369 508 l 369 517 l 258 517 l 258 964 m 368 7 q 268 -7 311 7 q 196 -43 225 -21 q 152 -93 167 -65 q 138 -147 138 -121 q 169 -220 138 -189 q 268 -251 201 -251 q 371 -233 315 -251 l 371 -226 q 336 -231 353 -231 q 263 -199 288 -231 q 238 -126 238 -167 q 246 -82 238 -104 q 270 -42 254 -60 q 310 -13 286 -25 q 368 0 335 -1 l 368 7 "},"ę":{"ha":506,"x_min":8,"x_max":497,"o":"m 497 294 l 261 294 l 261 17 q 253 -6 261 -6 q 244 17 244 -6 l 244 354 l 497 354 l 497 483 q 431 658 497 594 q 250 722 364 722 q 72 659 136 722 q 8 483 8 596 l 8 225 q 72 49 8 113 q 250 -14 136 -14 q 431 50 364 -14 q 497 225 497 114 l 497 294 m 244 363 l 244 692 q 253 714 244 714 q 261 692 261 714 l 261 363 l 244 363 m 344 4 q 244 -9 288 4 q 172 -44 201 -22 q 128 -94 143 -67 q 114 -147 114 -121 q 146 -220 114 -189 q 244 -251 178 -251 q 347 -233 292 -251 l 347 -226 q 313 -231 329 -231 q 239 -199 264 -231 q 214 -126 214 -167 q 222 -82 214 -104 q 247 -42 231 -60 q 287 -13 263 -25 q 344 0 311 -1 l 344 4 "},"Ě":{"ha":378,"x_min":8,"x_max":369,"o":"m 258 964 l 369 964 l 369 972 l 8 972 l 8 0 l 369 0 l 369 8 l 258 8 l 258 508 l 369 508 l 369 517 l 258 517 l 258 964 m 328 1218 l 319 1218 l 190 1182 l 188 1182 l 58 1218 l 50 1218 l 185 1028 l 193 1028 l 328 1218 "},"ě":{"ha":506,"x_min":8,"x_max":497,"o":"m 497 294 l 261 294 l 261 17 q 253 -6 261 -6 q 244 17 244 -6 l 244 354 l 497 354 l 497 483 q 431 658 497 594 q 250 722 364 722 q 72 659 136 722 q 8 483 8 596 l 8 225 q 72 49 8 113 q 250 -14 136 -14 q 431 50 364 -14 q 497 225 497 114 l 497 294 m 244 363 l 244 692 q 253 714 244 714 q 261 692 261 714 l 261 363 l 244 363 m 389 954 l 381 954 l 251 918 l 249 918 l 119 954 l 111 954 l 246 764 l 254 764 l 389 954 "},"Ĝ":{"ha":533,"x_min":8,"x_max":525,"o":"m 258 503 l 258 956 q 267 978 258 978 q 275 956 275 978 l 275 556 l 525 556 l 525 729 q 457 919 525 853 q 263 986 389 986 q 74 921 139 986 q 8 729 8 856 l 8 244 q 26 123 8 172 q 72 43 43 74 q 135 -1 100 13 q 206 -14 171 -14 q 297 8 256 -14 q 353 64 339 31 l 356 64 l 356 0 l 525 0 l 525 503 l 258 503 m 258 32 l 258 494 l 275 494 l 275 32 q 267 10 275 10 q 258 32 258 10 m 126 1032 l 135 1032 l 264 1068 l 267 1068 l 396 1032 l 404 1032 l 269 1222 l 261 1222 l 126 1032 "},"ĝ":{"ha":506,"x_min":8,"x_max":497,"o":"m 497 -81 l 497 708 l 261 708 l 261 647 l 258 647 q 135 722 204 722 q 42 674 75 722 q 8 540 8 626 l 8 178 q 43 38 8 89 q 138 -14 78 -14 q 258 61 204 -14 l 261 61 l 261 -258 q 253 -283 261 -283 q 244 -261 244 -283 l 244 -36 l 8 -36 l 8 -81 q 72 -236 8 -181 q 254 -292 136 -292 q 435 -237 372 -292 q 497 -81 497 -182 m 261 633 l 261 75 q 251 68 257 68 q 244 82 244 68 l 244 629 q 251 640 244 640 q 261 633 257 640 m 43 768 l 51 768 l 181 804 l 183 804 l 313 768 l 321 768 l 186 958 l 178 958 l 43 768 "},"Ğ":{"ha":533,"x_min":8,"x_max":525,"o":"m 258 503 l 258 956 q 267 978 258 978 q 275 956 275 978 l 275 556 l 525 556 l 525 729 q 457 919 525 853 q 263 986 389 986 q 74 921 139 986 q 8 729 8 856 l 8 244 q 26 123 8 172 q 72 43 43 74 q 135 -1 100 13 q 206 -14 171 -14 q 297 8 256 -14 q 353 64 339 31 l 356 64 l 356 0 l 525 0 l 525 503 l 258 503 m 258 32 l 258 494 l 275 494 l 275 32 q 267 10 275 10 q 258 32 258 10 m 119 1218 l 111 1218 q 125 1130 111 1167 q 161 1071 139 1093 q 211 1038 183 1049 q 267 1028 239 1028 q 322 1038 294 1028 q 372 1071 350 1049 q 408 1130 394 1093 q 422 1218 422 1167 l 413 1218 q 371 1158 413 1178 q 267 1139 329 1139 q 162 1158 204 1139 q 119 1218 119 1178 "},"ğ":{"ha":506,"x_min":8,"x_max":497,"o":"m 497 -81 l 497 708 l 261 708 l 261 647 l 258 647 q 135 722 204 722 q 42 674 75 722 q 8 540 8 626 l 8 178 q 43 38 8 89 q 138 -14 78 -14 q 258 61 204 -14 l 261 61 l 261 -258 q 253 -283 261 -283 q 244 -261 244 -283 l 244 -36 l 8 -36 l 8 -81 q 72 -236 8 -181 q 254 -292 136 -292 q 435 -237 372 -292 q 497 -81 497 -182 m 261 633 l 261 75 q 251 68 257 68 q 244 82 244 68 l 244 629 q 251 640 244 640 q 261 633 257 640 m 36 954 l 28 954 q 42 866 28 903 q 78 807 56 829 q 128 774 100 785 q 183 764 156 764 q 239 774 211 764 q 289 807 267 785 q 325 866 311 829 q 339 954 339 903 l 329 954 q 288 894 329 914 q 183 875 246 875 q 78 894 121 875 q 36 954 36 914 "},"Ġ":{"ha":533,"x_min":8,"x_max":525,"o":"m 258 503 l 258 956 q 267 978 258 978 q 275 956 275 978 l 275 556 l 525 556 l 525 729 q 457 919 525 853 q 263 986 389 986 q 74 921 139 986 q 8 729 8 856 l 8 244 q 26 123 8 172 q 72 43 43 74 q 135 -1 100 13 q 206 -14 171 -14 q 297 8 256 -14 q 353 64 339 31 l 356 64 l 356 0 l 525 0 l 525 503 l 258 503 m 258 32 l 258 494 l 275 494 l 275 32 q 267 10 275 10 q 258 32 258 10 m 168 1124 q 189 1048 168 1075 q 267 1021 210 1021 q 344 1048 324 1021 q 365 1122 365 1075 q 344 1197 365 1169 q 265 1225 322 1225 q 188 1198 208 1225 q 168 1124 168 1171 "},"ġ":{"ha":506,"x_min":8,"x_max":497,"o":"m 497 -81 l 497 708 l 261 708 l 261 647 l 258 647 q 135 722 204 722 q 42 674 75 722 q 8 540 8 626 l 8 178 q 43 38 8 89 q 138 -14 78 -14 q 258 61 204 -14 l 261 61 l 261 -258 q 253 -283 261 -283 q 244 -261 244 -283 l 244 -36 l 8 -36 l 8 -81 q 72 -236 8 -181 q 254 -292 136 -292 q 435 -237 372 -292 q 497 -81 497 -182 m 261 633 l 261 75 q 251 68 257 68 q 244 82 244 68 l 244 629 q 251 640 244 640 q 261 633 257 640 m 85 860 q 106 784 85 811 q 183 757 126 757 q 261 784 240 757 q 282 858 282 811 q 260 933 282 906 q 182 961 239 961 q 105 934 125 961 q 85 860 85 907 "},"Ģ":{"ha":533,"x_min":8,"x_max":525,"o":"m 258 503 l 258 956 q 267 978 258 978 q 275 956 275 978 l 275 556 l 525 556 l 525 729 q 457 919 525 853 q 263 986 389 986 q 74 921 139 986 q 8 729 8 856 l 8 244 q 26 123 8 172 q 72 43 43 74 q 135 -1 100 13 q 206 -14 171 -14 q 297 8 256 -14 q 353 64 339 31 l 356 64 l 356 0 l 525 0 l 525 503 l 258 503 m 258 32 l 258 494 l 275 494 l 275 32 q 267 10 275 10 q 258 32 258 10 m 174 -56 l 160 -246 l 192 -246 l 363 -56 l 174 -56 "},"ģ":{"ha":506,"x_min":8,"x_max":497,"o":"m 497 -81 l 497 708 l 261 708 l 261 647 l 258 647 q 135 722 204 722 q 42 674 75 722 q 8 540 8 626 l 8 178 q 43 38 8 89 q 138 -14 78 -14 q 258 61 204 -14 l 261 61 l 261 -258 q 253 -283 261 -283 q 244 -261 244 -283 l 244 -36 l 8 -36 l 8 -81 q 72 -236 8 -181 q 254 -292 136 -292 q 435 -237 372 -292 q 497 -81 497 -182 m 261 633 l 261 75 q 251 68 257 68 q 244 82 244 68 l 244 629 q 251 640 244 640 q 261 633 257 640 m 358 765 l 369 954 l 338 954 l 169 765 l 358 765 "},"Ĥ":{"ha":533,"x_min":8,"x_max":525,"o":"m 525 972 l 275 972 l 275 503 l 258 503 l 258 972 l 8 972 l 8 0 l 258 0 l 258 494 l 275 494 l 275 0 l 525 0 l 525 972 m 126 1032 l 135 1032 l 264 1068 l 267 1068 l 396 1032 l 404 1032 l 269 1222 l 261 1222 l 126 1032 "},"ĥ":{"ha":506,"x_min":-18,"x_max":497,"o":"m 8 1000 l 8 0 l 244 0 l 244 633 q 254 640 249 640 q 261 629 261 640 l 261 0 l 497 0 l 497 540 q 487 624 497 589 q 459 681 476 658 q 419 713 442 703 q 371 722 396 722 q 306 704 335 722 q 247 647 276 686 l 244 647 l 244 1000 l 8 1000 m -18 1046 l -10 1046 l 119 1082 l 122 1082 l 251 1046 l 260 1046 l 125 1236 l 117 1236 l -18 1046 "},"Ħ":{"ha":533,"x_min":-19,"x_max":553,"o":"m 525 972 l 275 972 l 275 754 l 258 754 l 258 972 l 8 972 l 8 754 l -19 754 l -19 746 l 8 746 l 8 0 l 258 0 l 258 494 l 275 494 l 275 0 l 525 0 l 525 746 l 553 746 l 553 754 l 525 754 l 525 972 m 275 503 l 258 503 l 258 746 l 275 746 l 275 503 "},"ħ":{"ha":506,"x_min":-35,"x_max":497,"o":"m 8 1000 l 8 0 l 244 0 l 244 633 q 254 640 249 640 q 261 629 261 640 l 261 0 l 497 0 l 497 540 q 487 624 497 589 q 459 681 476 658 q 419 713 442 703 q 371 722 396 722 q 306 704 335 722 q 247 647 276 686 l 244 647 l 244 1000 l 8 1000 m 313 853 l 313 861 l -35 861 l -35 853 l 313 853 "},"Ĩ":{"ha":267,"x_min":-3,"x_max":268,"o":"m 258 972 l 8 972 l 8 0 l 258 0 l 258 972 m 268 1213 l 268 1215 l 260 1215 l 260 1213 q 251 1181 260 1189 q 226 1172 242 1172 q 188 1180 210 1172 q 144 1196 167 1188 l 140 1197 q 101 1213 119 1206 q 67 1219 82 1219 q 15 1172 33 1219 q -3 1038 -3 1125 l -3 1035 l 6 1035 l 6 1036 q 15 1069 6 1060 q 40 1079 25 1079 q 76 1072 56 1079 q 119 1056 97 1065 l 125 1053 q 167 1037 146 1044 q 203 1029 188 1029 q 268 1213 268 1029 "},"ĩ":{"ha":256,"x_min":-8,"x_max":263,"o":"m 246 708 l 10 708 l 10 0 l 246 0 l 246 708 m 263 949 l 263 951 l 254 951 l 254 949 q 245 917 254 925 q 221 908 236 908 q 183 916 204 908 q 139 932 161 924 l 135 933 q 95 949 114 942 q 61 956 76 956 q 10 908 28 956 q -8 774 -8 861 l -8 771 l 0 771 l 0 772 q 10 806 0 796 q 35 815 19 815 q 71 808 50 815 q 114 792 92 801 l 119 789 q 161 773 140 781 q 197 765 182 765 q 263 949 263 765 "},"Ī":{"ha":267,"x_min":-19,"x_max":286,"o":"m 258 972 l 8 972 l 8 0 l 258 0 l 258 972 m 286 1117 l 286 1125 l -19 1125 l -19 1117 l 286 1117 "},"ī":{"ha":256,"x_min":-25,"x_max":281,"o":"m 246 708 l 10 708 l 10 0 l 246 0 l 246 708 m 281 853 l 281 861 l -25 861 l -25 853 l 281 853 "},"Ĭ":{"ha":267,"x_min":-22,"x_max":289,"o":"m 258 972 l 8 972 l 8 0 l 258 0 l 258 972 m -14 1218 l -22 1218 q -8 1130 -22 1167 q 28 1071 6 1093 q 78 1038 50 1049 q 133 1028 106 1028 q 189 1038 161 1028 q 239 1071 217 1049 q 275 1130 261 1093 q 289 1218 289 1167 l 279 1218 q 238 1158 279 1178 q 133 1139 196 1139 q 28 1158 71 1139 q -14 1218 -14 1178 "},"ĭ":{"ha":256,"x_min":-28,"x_max":283,"o":"m 246 708 l 10 708 l 10 0 l 246 0 l 246 708 m -19 954 l -28 954 q -14 866 -28 903 q 22 807 0 829 q 72 774 44 785 q 128 764 100 764 q 183 774 156 764 q 233 807 211 785 q 269 866 256 829 q 283 954 283 903 l 274 954 q 232 894 274 914 q 128 875 190 875 q 23 894 65 875 q -19 954 -19 914 "},"Į":{"ha":267,"x_min":8,"x_max":258,"o":"m 258 972 l 8 972 l 8 0 l 258 0 l 258 972 m 256 7 q 156 -7 199 7 q 83 -43 113 -21 q 40 -93 54 -65 q 25 -147 25 -121 q 57 -220 25 -189 q 156 -251 89 -251 q 258 -233 203 -251 l 258 -226 q 224 -231 240 -231 q 150 -199 175 -231 q 125 -126 125 -167 q 133 -82 125 -104 q 158 -42 142 -60 q 198 -13 174 -25 q 256 0 222 -1 l 256 7 "},"į":{"ha":256,"x_min":1,"x_max":254,"o":"m 1 861 q 35 776 1 803 q 128 749 69 749 q 220 776 186 749 q 254 861 254 803 q 219 947 254 919 q 126 974 185 974 q 35 947 68 974 q 1 861 1 919 m 246 708 l 10 708 l 10 0 l 246 0 l 246 708 m 242 -7 q 142 -21 185 -7 q 69 -57 99 -35 q 26 -107 40 -79 q 11 -161 11 -135 q 43 -234 11 -203 q 142 -265 75 -265 q 244 -247 189 -265 l 244 -240 q 210 -244 226 -244 q 136 -212 161 -244 q 111 -140 111 -181 q 119 -96 111 -118 q 144 -56 128 -74 q 184 -27 160 -39 q 242 -14 208 -15 l 242 -7 "},"İ":{"ha":267,"x_min":8,"x_max":258,"o":"m 258 972 l 8 972 l 8 0 l 258 0 l 258 972 m 35 1124 q 56 1048 35 1075 q 133 1021 76 1021 q 211 1048 190 1021 q 232 1122 232 1075 q 210 1197 232 1169 q 132 1225 189 1225 q 55 1198 75 1225 q 35 1124 35 1171 "},"Ĳ":{"ha":800,"x_min":8,"x_max":792,"o":"m 258 972 l 8 972 l 8 0 l 258 0 l 258 972 m 792 972 l 542 972 l 542 17 q 533 -6 542 -6 q 525 17 525 -6 l 525 465 l 275 465 l 275 244 q 338 52 275 118 q 528 -14 401 -14 q 724 53 656 -14 q 792 244 792 119 l 792 972 "},"ĳ":{"ha":510,"x_min":1,"x_max":508,"o":"m 1 861 q 35 776 1 803 q 128 749 69 749 q 220 776 186 749 q 254 861 254 803 q 219 947 254 919 q 126 974 185 974 q 35 947 68 974 q 1 861 1 919 m 246 708 l 10 708 l 10 0 l 246 0 l 246 708 m 256 861 q 382 749 256 749 q 508 860 508 749 q 476 944 508 915 q 381 974 443 974 q 288 945 319 974 q 256 861 256 917 m 500 -60 l 500 708 l 264 708 l 264 -187 q 263 -217 264 -201 q 258 -244 263 -232 q 245 -265 254 -257 q 219 -272 236 -272 q 210 -272 215 -272 q 200 -271 206 -272 l 200 -279 q 265 -288 235 -285 q 324 -292 296 -292 q 398 -281 365 -292 q 453 -245 431 -271 q 488 -174 476 -219 q 500 -60 500 -129 "},"Ĵ":{"ha":533,"x_min":8,"x_max":538,"o":"m 525 972 l 275 972 l 275 17 q 267 -6 275 -6 q 258 17 258 -6 l 258 465 l 8 465 l 8 244 q 72 52 8 118 q 261 -14 135 -14 q 457 53 389 -14 q 525 244 525 119 l 525 972 m 260 1032 l 268 1032 l 397 1068 l 400 1068 l 529 1032 l 538 1032 l 403 1222 l 394 1222 l 260 1032 "},"ĵ":{"ha":254,"x_min":-56,"x_max":263,"o":"m 244 -60 l 244 708 l 8 708 l 8 -187 q 8 -217 8 -201 q 3 -244 7 -232 q -10 -265 -1 -257 q -36 -272 -19 -272 q -45 -272 -40 -272 q -56 -271 -50 -272 l -56 -279 q 10 -288 -21 -285 q 68 -292 40 -292 q 142 -281 110 -292 q 198 -245 175 -271 q 233 -174 221 -219 q 244 -60 244 -129 m -15 768 l -7 768 l 122 804 l 125 804 l 254 768 l 263 768 l 128 958 l 119 958 l -15 768 "},"Ķ":{"ha":554,"x_min":8,"x_max":550,"o":"m 258 532 l 258 972 l 8 972 l 8 0 l 258 0 l 258 524 l 261 524 l 300 0 l 550 0 l 475 528 l 536 972 l 286 972 l 261 532 l 258 532 m 186 -56 l 172 -246 l 204 -246 l 375 -56 l 186 -56 "},"ķ":{"ha":494,"x_min":8,"x_max":508,"o":"m 244 376 l 244 1000 l 8 1000 l 8 0 l 244 0 l 244 368 l 247 368 l 278 0 l 508 0 l 446 372 l 500 708 l 269 708 l 247 376 l 244 376 m 165 -56 l 151 -246 l 183 -246 l 354 -56 l 165 -56 "},"ĸ":{"ha":494,"x_min":8,"x_max":508,"o":"m 244 376 l 244 708 l 8 708 l 8 0 l 244 0 l 244 368 l 247 368 l 278 0 l 508 0 l 446 372 l 500 708 l 269 708 l 247 376 l 244 376 "},"Ĺ":{"ha":374,"x_min":8,"x_max":369,"o":"m 258 972 l 8 972 l 8 0 l 369 0 l 369 8 l 258 8 l 258 972 m 97 1028 l 106 1028 l 246 1218 l 65 1218 l 97 1028 "},"ĺ":{"ha":253,"x_min":8,"x_max":244,"o":"m 8 1000 l 8 0 l 244 0 l 244 1000 l 8 1000 m 90 1056 l 99 1056 l 239 1246 l 58 1246 l 90 1056 "},"Ļ":{"ha":374,"x_min":8,"x_max":369,"o":"m 258 972 l 8 972 l 8 0 l 369 0 l 369 8 l 258 8 l 258 972 m 88 -56 l 74 -246 l 106 -246 l 276 -56 l 88 -56 "},"ļ":{"ha":253,"x_min":8,"x_max":244,"o":"m 8 1000 l 8 0 l 244 0 l 244 1000 l 8 1000 m 35 -56 l 21 -246 l 53 -246 l 224 -56 l 35 -56 "},"Ľ":{"ha":388,"x_min":8,"x_max":450,"o":"m 258 972 l 8 972 l 8 0 l 369 0 l 369 8 l 258 8 l 258 972 m 289 972 l 275 629 l 306 629 l 450 972 l 289 972 "},"ľ":{"ha":253,"x_min":8,"x_max":436,"o":"m 8 1000 l 8 0 l 244 0 l 244 1000 l 8 1000 m 275 1000 l 261 657 l 292 657 l 436 1000 l 275 1000 "},"Ŀ":{"ha":374,"x_min":8,"x_max":472,"o":"m 258 972 l 8 972 l 8 0 l 369 0 l 369 8 l 258 8 l 258 972 m 275 521 q 296 445 275 472 q 374 418 317 418 q 451 445 431 418 q 472 519 472 472 q 451 594 472 567 q 372 622 429 622 q 295 595 315 622 q 275 521 275 568 "},"ŀ":{"ha":253,"x_min":8,"x_max":457,"o":"m 8 1000 l 8 0 l 244 0 l 244 1000 l 8 1000 m 260 499 q 281 423 260 450 q 358 396 301 396 q 436 423 415 396 q 457 497 457 450 q 435 572 457 544 q 357 600 414 600 q 280 573 300 600 q 260 499 260 546 "},"Ń":{"ha":481,"x_min":8,"x_max":472,"o":"m 472 972 l 464 972 l 464 69 l 461 69 l 261 972 l 8 972 l 8 0 l 17 0 l 17 932 l 19 932 l 222 0 l 472 0 l 472 972 m 204 1028 l 213 1028 l 353 1218 l 172 1218 l 204 1028 "},"ń":{"ha":506,"x_min":8,"x_max":497,"o":"m 8 708 l 8 0 l 244 0 l 244 633 q 254 640 249 640 q 261 629 261 640 l 261 0 l 497 0 l 497 540 q 487 624 497 589 q 459 681 476 658 q 419 713 442 703 q 371 722 396 722 q 306 704 335 722 q 247 647 278 686 l 244 647 l 244 708 l 8 708 m 218 764 l 226 764 l 367 954 l 186 954 l 218 764 "},"Ņ":{"ha":481,"x_min":8,"x_max":472,"o":"m 472 972 l 464 972 l 464 69 l 461 69 l 261 972 l 8 972 l 8 0 l 17 0 l 17 932 l 19 932 l 222 0 l 472 0 l 472 972 m 147 -56 l 133 -246 l 165 -246 l 336 -56 l 147 -56 "},"ņ":{"ha":506,"x_min":8,"x_max":497,"o":"m 8 708 l 8 0 l 244 0 l 244 633 q 254 640 249 640 q 261 629 261 640 l 261 0 l 497 0 l 497 540 q 487 624 497 589 q 459 681 476 658 q 419 713 442 703 q 371 722 396 722 q 306 704 335 722 q 247 647 278 686 l 244 647 l 244 708 l 8 708 m 160 -56 l 146 -246 l 178 -246 l 349 -56 l 160 -56 "},"Ň":{"ha":481,"x_min":8,"x_max":472,"o":"m 472 972 l 464 972 l 464 69 l 461 69 l 261 972 l 8 972 l 8 0 l 17 0 l 17 932 l 19 932 l 222 0 l 472 0 l 472 972 m 379 1218 l 371 1218 l 242 1182 l 239 1182 l 110 1218 l 101 1218 l 236 1028 l 244 1028 l 379 1218 "},"ň":{"ha":506,"x_min":8,"x_max":497,"o":"m 8 708 l 8 0 l 244 0 l 244 633 q 254 640 249 640 q 261 629 261 640 l 261 0 l 497 0 l 497 540 q 487 624 497 589 q 459 681 476 658 q 419 713 442 703 q 371 722 396 722 q 306 704 335 722 q 247 647 278 686 l 244 647 l 244 708 l 8 708 m 393 954 l 385 954 l 256 918 l 253 918 l 124 954 l 115 954 l 250 764 l 258 764 l 393 954 "},"ŉ":{"ha":506,"x_min":-81,"x_max":497,"o":"m 8 708 l 8 0 l 244 0 l 244 633 q 254 640 249 640 q 261 629 261 640 l 261 0 l 497 0 l 497 540 q 487 624 497 589 q 459 681 476 658 q 419 713 442 703 q 371 722 396 722 q 306 704 335 722 q 247 647 278 686 l 244 647 l 244 708 l 8 708 m -67 972 l -81 629 l -50 629 l 122 972 l -67 972 "},"Ŋ":{"ha":481,"x_min":8,"x_max":472,"o":"m 472 972 l 464 972 l 464 69 l 461 69 l 261 972 l 8 972 l 8 0 l 17 0 l 17 932 l 19 932 l 222 0 l 222 -187 q 222 -217 222 -201 q 218 -244 221 -232 q 208 -265 215 -257 q 188 -272 200 -272 q 172 -271 178 -272 l 172 -279 q 238 -288 207 -285 q 296 -292 268 -292 q 370 -281 338 -292 q 426 -245 403 -271 q 460 -174 449 -219 q 472 -60 472 -129 l 472 972 "},"ŋ":{"ha":506,"x_min":8,"x_max":497,"o":"m 497 -60 l 497 540 q 487 624 497 589 q 459 681 476 658 q 419 713 442 703 q 371 722 396 722 q 306 704 335 722 q 247 647 278 686 l 244 647 l 244 708 l 8 708 l 8 0 l 244 0 l 244 633 q 254 640 249 640 q 261 629 261 640 l 261 -187 q 260 -217 261 -201 q 256 -244 260 -232 q 242 -265 251 -257 q 217 -272 233 -272 q 208 -272 213 -272 q 197 -271 203 -272 l 197 -279 q 263 -288 232 -285 q 321 -292 293 -292 q 395 -281 363 -292 q 451 -245 428 -271 q 485 -174 474 -219 q 497 -60 497 -129 "},"Ō":{"ha":533,"x_min":8,"x_max":525,"o":"m 8 729 l 8 244 q 74 52 8 118 q 263 -14 139 -14 q 457 53 389 -14 q 525 244 525 119 l 525 729 q 457 919 525 853 q 263 986 389 986 q 74 921 139 986 q 8 729 8 856 m 258 17 l 258 956 q 267 978 258 978 q 275 956 275 978 l 275 17 q 267 -6 275 -6 q 258 17 258 -6 m 419 1117 l 419 1125 l 114 1125 l 114 1117 l 419 1117 "},"ō":{"ha":506,"x_min":8,"x_max":497,"o":"m 8 483 l 8 225 q 69 53 8 121 q 250 -14 129 -14 q 357 4 311 -14 q 434 54 403 22 q 481 130 465 86 q 497 225 497 174 l 497 483 q 481 578 497 535 q 434 654 465 622 q 357 704 403 686 q 250 722 311 722 q 69 655 129 722 q 8 483 8 588 m 244 17 l 244 692 q 253 714 244 714 q 261 692 261 714 l 261 17 q 253 -6 261 -6 q 244 17 244 -6 m 403 853 l 403 861 l 97 861 l 97 853 l 403 853 "},"Ŏ":{"ha":533,"x_min":8,"x_max":525,"o":"m 8 729 l 8 244 q 74 52 8 118 q 263 -14 139 -14 q 457 53 389 -14 q 525 244 525 119 l 525 729 q 457 919 525 853 q 263 986 389 986 q 74 921 139 986 q 8 729 8 856 m 258 17 l 258 956 q 267 978 258 978 q 275 956 275 978 l 275 17 q 267 -6 275 -6 q 258 17 258 -6 m 119 1218 l 111 1218 q 125 1130 111 1167 q 161 1071 139 1093 q 211 1038 183 1049 q 267 1028 239 1028 q 322 1038 294 1028 q 372 1071 350 1049 q 408 1130 394 1093 q 422 1218 422 1167 l 413 1218 q 371 1158 413 1178 q 267 1139 329 1139 q 162 1158 204 1139 q 119 1218 119 1178 "},"ŏ":{"ha":506,"x_min":8,"x_max":497,"o":"m 8 483 l 8 225 q 69 53 8 121 q 250 -14 129 -14 q 357 4 311 -14 q 434 54 403 22 q 481 130 465 86 q 497 225 497 174 l 497 483 q 481 578 497 535 q 434 654 465 622 q 357 704 403 686 q 250 722 311 722 q 69 655 129 722 q 8 483 8 588 m 244 17 l 244 692 q 253 714 244 714 q 261 692 261 714 l 261 17 q 253 -6 261 -6 q 244 17 244 -6 m 103 954 l 94 954 q 108 866 94 903 q 144 807 122 829 q 194 774 167 785 q 250 764 222 764 q 306 774 278 764 q 356 807 333 785 q 392 866 378 829 q 406 954 406 903 l 396 954 q 354 894 396 914 q 250 875 313 875 q 145 894 188 875 q 103 954 103 914 "},"Ő":{"ha":533,"x_min":8,"x_max":525,"o":"m 8 729 l 8 244 q 74 52 8 118 q 263 -14 139 -14 q 457 53 389 -14 q 525 244 525 119 l 525 729 q 457 919 525 853 q 263 986 389 986 q 74 921 139 986 q 8 729 8 856 m 258 17 l 258 956 q 267 978 258 978 q 275 956 275 978 l 275 17 q 267 -6 275 -6 q 258 17 258 -6 m 169 1028 l 178 1028 l 292 1218 l 153 1218 l 169 1028 m 326 1028 l 335 1028 l 449 1218 l 310 1218 l 326 1028 "},"ő":{"ha":506,"x_min":8,"x_max":497,"o":"m 8 483 l 8 225 q 69 53 8 121 q 250 -14 129 -14 q 357 4 311 -14 q 434 54 403 22 q 481 130 465 86 q 497 225 497 174 l 497 483 q 481 578 497 535 q 434 654 465 622 q 357 704 403 686 q 250 722 311 722 q 69 655 129 722 q 8 483 8 588 m 244 17 l 244 692 q 253 714 244 714 q 261 692 261 714 l 261 17 q 253 -6 261 -6 q 244 17 244 -6 m 153 764 l 161 764 l 275 954 l 136 954 l 153 764 m 310 764 l 318 764 l 432 954 l 293 954 l 310 764 "},"Ŕ":{"ha":533,"x_min":8,"x_max":539,"o":"m 264 972 l 8 972 l 8 0 l 258 0 l 258 451 l 261 451 q 274 448 272 451 q 275 429 275 444 l 275 199 q 277 93 275 142 q 289 0 279 44 l 539 0 q 527 93 529 44 q 525 197 525 142 l 525 208 q 510 309 525 264 q 467 387 494 354 q 401 437 440 419 q 314 454 363 454 l 314 457 q 468 519 411 457 q 525 706 525 582 l 525 713 q 457 909 525 846 q 264 972 389 972 m 258 460 l 258 964 l 261 964 q 274 960 272 964 q 275 942 275 957 l 275 482 q 274 463 275 467 q 261 460 272 460 l 258 460 m 231 1028 l 239 1028 l 379 1218 l 199 1218 l 231 1028 "},"ŕ":{"ha":397,"x_min":8,"x_max":389,"o":"m 244 457 l 244 708 l 8 708 l 8 0 l 244 0 l 244 375 q 269 460 244 432 q 350 489 293 489 q 369 488 360 489 q 389 486 379 488 l 389 721 q 375 722 383 722 q 322 700 344 722 q 285 641 300 678 q 262 556 271 604 q 247 457 253 508 l 244 457 m 164 764 l 172 764 l 313 954 l 132 954 l 164 764 "},"Ŗ":{"ha":533,"x_min":8,"x_max":539,"o":"m 264 972 l 8 972 l 8 0 l 258 0 l 258 451 l 261 451 q 274 448 272 451 q 275 429 275 444 l 275 199 q 277 93 275 142 q 289 0 279 44 l 539 0 q 527 93 529 44 q 525 197 525 142 l 525 208 q 510 309 525 264 q 467 387 494 354 q 401 437 440 419 q 314 454 363 454 l 314 457 q 468 519 411 457 q 525 706 525 582 l 525 713 q 457 909 525 846 q 264 972 389 972 m 258 460 l 258 964 l 261 964 q 274 960 272 964 q 275 942 275 957 l 275 482 q 274 463 275 467 q 261 460 272 460 l 258 460 m 181 -56 l 167 -246 l 199 -246 l 369 -56 l 181 -56 "},"ŗ":{"ha":397,"x_min":8,"x_max":389,"o":"m 244 457 l 244 708 l 8 708 l 8 0 l 244 0 l 244 375 q 269 460 244 432 q 350 489 293 489 q 369 488 360 489 q 389 486 379 488 l 389 721 q 375 722 383 722 q 322 700 344 722 q 285 641 300 678 q 262 556 271 604 q 247 457 253 508 l 244 457 m 33 -56 l 19 -246 l 51 -246 l 222 -56 l 33 -56 "},"Ř":{"ha":533,"x_min":8,"x_max":539,"o":"m 264 972 l 8 972 l 8 0 l 258 0 l 258 451 l 261 451 q 274 448 272 451 q 275 429 275 444 l 275 199 q 277 93 275 142 q 289 0 279 44 l 539 0 q 527 93 529 44 q 525 197 525 142 l 525 208 q 510 309 525 264 q 467 387 494 354 q 401 437 440 419 q 314 454 363 454 l 314 457 q 468 519 411 457 q 525 706 525 582 l 525 713 q 457 909 525 846 q 264 972 389 972 m 258 460 l 258 964 l 261 964 q 274 960 272 964 q 275 942 275 957 l 275 482 q 274 463 275 467 q 261 460 272 460 l 258 460 m 406 1218 l 397 1218 l 268 1182 l 265 1182 l 136 1218 l 128 1218 l 263 1028 l 271 1028 l 406 1218 "},"ř":{"ha":397,"x_min":8,"x_max":389,"o":"m 244 457 l 244 708 l 8 708 l 8 0 l 244 0 l 244 375 q 269 460 244 432 q 350 489 293 489 q 369 488 360 489 q 389 486 379 488 l 389 721 q 375 722 383 722 q 322 700 344 722 q 285 641 300 678 q 262 556 271 604 q 247 457 253 508 l 244 457 m 339 954 l 331 954 l 201 918 l 199 918 l 69 954 l 61 954 l 196 764 l 204 764 l 339 954 "},"Ś":{"ha":533,"x_min":8,"x_max":525,"o":"m 275 639 l 525 639 l 525 729 q 457 919 525 853 q 263 986 389 986 q 74 921 139 986 q 8 729 8 856 l 8 717 q 14 611 8 656 q 33 533 19 567 q 72 476 47 500 q 132 431 96 451 l 176 406 q 233 372 213 385 q 262 350 253 360 q 273 331 271 340 q 275 306 275 321 l 275 15 q 267 -6 275 -6 q 258 17 258 -6 l 258 333 l 8 333 l 8 244 q 73 52 8 118 q 263 -14 138 -14 q 457 53 389 -14 q 525 244 525 119 l 525 263 q 519 367 525 324 q 501 443 514 411 q 465 499 488 475 q 406 542 442 522 l 368 563 q 306 599 328 585 q 273 623 283 613 q 260 644 263 633 q 258 669 258 654 l 258 956 q 267 978 258 978 q 275 956 275 978 l 275 639 m 231 1028 l 239 1028 l 379 1218 l 199 1218 l 231 1028 "},"ś":{"ha":506,"x_min":8,"x_max":497,"o":"m 261 467 l 497 467 l 497 496 q 481 584 497 543 q 434 656 465 625 q 357 704 403 686 q 251 722 311 722 q 147 705 192 722 q 71 658 101 688 q 25 591 40 629 q 10 511 10 553 l 10 489 q 34 378 10 418 q 118 311 58 339 l 218 265 q 253 243 246 253 q 260 207 260 233 l 260 21 q 251 -4 260 -4 q 244 21 244 -4 l 244 242 l 8 242 l 8 214 q 24 125 8 167 q 69 52 39 83 q 144 3 100 21 q 249 -14 189 -14 q 355 3 308 -14 q 433 50 401 21 q 480 117 464 79 q 496 197 496 156 l 496 219 q 467 330 496 290 q 381 399 439 369 l 282 447 q 252 467 258 458 q 246 496 246 476 l 246 689 q 254 714 246 714 q 261 689 261 714 l 261 467 m 214 764 l 222 764 l 363 954 l 182 954 l 214 764 "},"Ŝ":{"ha":533,"x_min":8,"x_max":525,"o":"m 275 639 l 525 639 l 525 729 q 457 919 525 853 q 263 986 389 986 q 74 921 139 986 q 8 729 8 856 l 8 717 q 14 611 8 656 q 33 533 19 567 q 72 476 47 500 q 132 431 96 451 l 176 406 q 233 372 213 385 q 262 350 253 360 q 273 331 271 340 q 275 306 275 321 l 275 15 q 267 -6 275 -6 q 258 17 258 -6 l 258 333 l 8 333 l 8 244 q 73 52 8 118 q 263 -14 138 -14 q 457 53 389 -14 q 525 244 525 119 l 525 263 q 519 367 525 324 q 501 443 514 411 q 465 499 488 475 q 406 542 442 522 l 368 563 q 306 599 328 585 q 273 623 283 613 q 260 644 263 633 q 258 669 258 654 l 258 956 q 267 978 258 978 q 275 956 275 978 l 275 639 m 126 1032 l 135 1032 l 264 1068 l 267 1068 l 396 1032 l 404 1032 l 269 1222 l 261 1222 l 126 1032 "},"ŝ":{"ha":506,"x_min":8,"x_max":497,"o":"m 261 467 l 497 467 l 497 496 q 481 584 497 543 q 434 656 465 625 q 357 704 403 686 q 251 722 311 722 q 147 705 192 722 q 71 658 101 688 q 25 591 40 629 q 10 511 10 553 l 10 489 q 34 378 10 418 q 118 311 58 339 l 218 265 q 253 243 246 253 q 260 207 260 233 l 260 21 q 251 -4 260 -4 q 244 21 244 -4 l 244 242 l 8 242 l 8 214 q 24 125 8 167 q 69 52 39 83 q 144 3 100 21 q 249 -14 189 -14 q 355 3 308 -14 q 433 50 401 21 q 480 117 464 79 q 496 197 496 156 l 496 219 q 467 330 496 290 q 381 399 439 369 l 282 447 q 252 467 258 458 q 246 496 246 476 l 246 689 q 254 714 246 714 q 261 689 261 714 l 261 467 m 110 768 l 118 768 l 247 804 l 250 804 l 379 768 l 388 768 l 253 958 l 244 958 l 110 768 "},"Ş":{"ha":533,"x_min":8,"x_max":525,"o":"m 275 639 l 525 639 l 525 729 q 457 919 525 853 q 263 986 389 986 q 74 921 139 986 q 8 729 8 856 l 8 717 q 14 611 8 656 q 33 533 19 567 q 72 476 47 500 q 132 431 96 451 l 176 406 q 233 372 213 385 q 262 350 253 360 q 273 331 271 340 q 275 306 275 321 l 275 15 q 267 -6 275 -6 q 258 17 258 -6 l 258 333 l 8 333 l 8 244 q 73 52 8 118 q 263 -14 138 -14 q 457 53 389 -14 q 525 244 525 119 l 525 263 q 519 367 525 324 q 501 443 514 411 q 465 499 488 475 q 406 542 442 522 l 368 563 q 306 599 328 585 q 273 623 283 613 q 260 644 263 633 q 258 669 258 654 l 258 956 q 267 978 258 978 q 275 956 275 978 l 275 639 m 292 -10 l 283 -65 q 378 -94 349 -65 q 408 -157 408 -122 q 378 -224 408 -193 q 292 -254 349 -254 q 243 -247 271 -254 l 243 -256 q 332 -268 292 -268 q 408 -258 374 -268 q 466 -233 442 -249 q 503 -197 490 -217 q 517 -156 517 -176 q 465 -86 517 -117 q 293 -56 413 -56 l 300 -10 l 292 -10 "},"ş":{"ha":506,"x_min":8,"x_max":497,"o":"m 261 467 l 497 467 l 497 496 q 481 584 497 543 q 434 656 465 625 q 357 704 403 686 q 251 722 311 722 q 147 705 192 722 q 71 658 101 688 q 25 591 40 629 q 10 511 10 553 l 10 489 q 34 378 10 418 q 118 311 58 339 l 218 265 q 253 243 246 253 q 260 207 260 233 l 260 21 q 251 -4 260 -4 q 244 21 244 -4 l 244 242 l 8 242 l 8 214 q 24 125 8 167 q 69 52 39 83 q 144 3 100 21 q 249 -14 189 -14 q 355 3 308 -14 q 433 50 401 21 q 480 117 464 79 q 496 197 496 156 l 496 219 q 467 330 496 290 q 381 399 439 369 l 282 447 q 252 467 258 458 q 246 496 246 476 l 246 689 q 254 714 246 714 q 261 689 261 714 l 261 467 m 246 -10 l 238 -65 q 333 -94 303 -65 q 363 -157 363 -122 q 333 -224 363 -193 q 246 -254 303 -254 q 197 -247 225 -254 l 197 -256 q 286 -268 246 -268 q 362 -258 328 -268 q 420 -233 396 -249 q 458 -197 444 -217 q 471 -156 471 -176 q 419 -86 471 -117 q 247 -56 367 -56 l 254 -10 l 246 -10 "},"Ţ":{"ha":511,"x_min":6,"x_max":506,"o":"m 506 964 l 506 972 l 6 972 l 6 964 l 131 964 l 131 0 l 381 0 l 381 964 l 506 964 m 251 1 l 243 -54 q 338 -83 308 -54 q 368 -146 368 -111 q 338 -212 368 -182 q 251 -243 308 -243 q 203 -236 231 -243 l 203 -244 q 292 -257 251 -257 q 367 -247 333 -257 q 426 -222 401 -237 q 463 -185 450 -206 q 476 -144 476 -165 q 424 -75 476 -106 q 253 -44 372 -44 l 260 1 l 251 1 "},"ţ":{"ha":396,"x_min":0,"x_max":424,"o":"m 0 708 l 0 700 l 56 700 l 56 221 q 69 106 56 151 q 110 34 83 61 q 172 -3 136 7 q 253 -14 208 -14 q 319 -10 285 -14 q 390 0 353 -7 l 390 8 q 371 6 379 6 q 354 6 363 6 q 307 24 322 6 q 292 92 292 43 l 292 700 l 390 700 l 390 708 l 292 708 l 292 875 l 56 861 l 56 708 l 0 708 m 199 -10 l 190 -65 q 285 -94 256 -65 q 315 -157 315 -122 q 285 -224 315 -193 q 199 -254 256 -254 q 150 -247 178 -254 l 150 -256 q 239 -268 199 -268 q 315 -258 281 -268 q 373 -233 349 -249 q 410 -197 397 -217 q 424 -156 424 -176 q 372 -86 424 -117 q 200 -56 319 -56 l 207 -10 l 199 -10 "},"Ť":{"ha":511,"x_min":6,"x_max":506,"o":"m 506 964 l 506 972 l 6 972 l 6 964 l 131 964 l 131 0 l 381 0 l 381 964 l 506 964 m 394 1218 l 386 1218 l 257 1182 l 254 1182 l 125 1218 l 117 1218 l 251 1028 l 260 1028 l 394 1218 "},"ť":{"ha":396,"x_min":0,"x_max":483,"o":"m 0 708 l 0 700 l 56 700 l 56 221 q 69 106 56 151 q 110 34 83 61 q 172 -3 136 7 q 253 -14 208 -14 q 319 -10 285 -14 q 390 0 353 -7 l 390 8 q 371 6 379 6 q 354 6 363 6 q 307 24 322 6 q 292 92 292 43 l 292 700 l 390 700 l 390 708 l 292 708 l 292 875 l 56 861 l 56 708 l 0 708 m 322 986 l 308 768 l 339 768 l 483 986 l 322 986 "},"Ŧ":{"ha":511,"x_min":6,"x_max":506,"o":"m 506 964 l 506 972 l 6 972 l 6 964 l 131 964 l 131 0 l 381 0 l 381 964 l 506 964 m 429 433 l 429 442 l 82 442 l 82 433 l 429 433 "},"ŧ":{"ha":396,"x_min":0,"x_max":390,"o":"m 0 708 l 0 700 l 56 700 l 56 221 q 69 106 56 151 q 110 34 83 61 q 172 -3 136 7 q 253 -14 208 -14 q 319 -10 285 -14 q 390 0 353 -7 l 390 8 q 371 6 379 6 q 354 6 363 6 q 307 24 322 6 q 292 92 292 43 l 292 700 l 390 700 l 390 708 l 292 708 l 292 875 l 56 861 l 56 708 l 0 708 m 390 386 l 390 394 l 0 394 l 0 386 l 390 386 "},"Ũ":{"ha":533,"x_min":8,"x_max":525,"o":"m 258 972 l 8 972 l 8 244 q 73 52 8 118 q 263 -14 138 -14 q 457 53 389 -14 q 525 244 525 119 l 525 972 l 275 972 l 275 17 q 267 -6 275 -6 q 258 17 258 -6 l 258 972 m 401 1213 l 401 1215 l 393 1215 l 393 1213 q 384 1181 393 1189 q 360 1172 375 1172 q 322 1180 343 1172 q 278 1196 300 1188 l 274 1197 q 234 1213 253 1206 q 200 1219 215 1219 q 149 1172 167 1219 q 131 1038 131 1125 l 131 1035 l 139 1035 l 139 1036 q 149 1069 139 1060 q 174 1079 158 1079 q 210 1072 189 1079 q 253 1056 231 1065 l 258 1053 q 300 1037 279 1044 q 336 1029 321 1029 q 401 1213 401 1029 "},"ũ":{"ha":506,"x_min":8,"x_max":497,"o":"m 497 0 l 497 708 l 261 708 l 261 75 q 251 68 257 68 q 244 79 244 68 l 244 708 l 8 708 l 8 168 q 46 28 8 71 q 135 -14 83 -14 q 199 4 171 -14 q 260 61 228 22 l 261 61 l 261 0 l 497 0 m 385 949 l 385 951 l 376 951 l 376 949 q 367 917 376 925 q 343 908 358 908 q 305 916 326 908 q 261 932 283 924 l 257 933 q 217 949 236 942 q 183 956 199 956 q 132 908 150 956 q 114 774 114 861 l 114 771 l 122 771 l 122 772 q 132 806 122 796 q 157 815 142 815 q 193 808 172 815 q 236 792 214 801 l 242 789 q 283 773 263 781 q 319 765 304 765 q 385 949 385 765 "},"Ū":{"ha":533,"x_min":8,"x_max":525,"o":"m 258 972 l 8 972 l 8 244 q 73 52 8 118 q 263 -14 138 -14 q 457 53 389 -14 q 525 244 525 119 l 525 972 l 275 972 l 275 17 q 267 -6 275 -6 q 258 17 258 -6 l 258 972 m 419 1117 l 419 1125 l 114 1125 l 114 1117 l 419 1117 "},"ū":{"ha":506,"x_min":8,"x_max":497,"o":"m 497 0 l 497 708 l 261 708 l 261 75 q 251 68 257 68 q 244 79 244 68 l 244 708 l 8 708 l 8 168 q 46 28 8 71 q 135 -14 83 -14 q 199 4 171 -14 q 260 61 228 22 l 261 61 l 261 0 l 497 0 m 403 853 l 403 861 l 97 861 l 97 853 l 403 853 "},"Ŭ":{"ha":533,"x_min":8,"x_max":525,"o":"m 258 972 l 8 972 l 8 244 q 73 52 8 118 q 263 -14 138 -14 q 457 53 389 -14 q 525 244 525 119 l 525 972 l 275 972 l 275 17 q 267 -6 275 -6 q 258 17 258 -6 l 258 972 m 119 1218 l 111 1218 q 125 1130 111 1167 q 161 1071 139 1093 q 211 1038 183 1049 q 267 1028 239 1028 q 322 1038 294 1028 q 372 1071 350 1049 q 408 1130 394 1093 q 422 1218 422 1167 l 413 1218 q 371 1158 413 1178 q 267 1139 329 1139 q 162 1158 204 1139 q 119 1218 119 1178 "},"ŭ":{"ha":506,"x_min":8,"x_max":497,"o":"m 497 0 l 497 708 l 261 708 l 261 75 q 251 68 257 68 q 244 79 244 68 l 244 708 l 8 708 l 8 168 q 46 28 8 71 q 135 -14 83 -14 q 199 4 171 -14 q 260 61 228 22 l 261 61 l 261 0 l 497 0 m 103 954 l 94 954 q 108 866 94 903 q 144 807 122 829 q 194 774 167 785 q 250 764 222 764 q 306 774 278 764 q 356 807 333 785 q 392 866 378 829 q 406 954 406 903 l 396 954 q 354 894 396 914 q 250 875 313 875 q 145 894 188 875 q 103 954 103 914 "},"Ů":{"ha":533,"x_min":8,"x_max":525,"o":"m 258 972 l 8 972 l 8 244 q 73 52 8 118 q 263 -14 138 -14 q 457 53 389 -14 q 525 244 525 119 l 525 972 l 275 972 l 275 17 q 267 -6 275 -6 q 258 17 258 -6 l 258 972 m 147 1124 q 179 1046 147 1071 q 267 1021 211 1021 q 354 1046 322 1021 q 386 1124 386 1071 q 353 1201 386 1176 q 265 1225 321 1225 q 179 1201 211 1225 q 147 1124 147 1176 m 160 1124 q 188 1192 160 1171 q 265 1214 217 1214 q 344 1192 315 1214 q 374 1124 374 1169 q 344 1053 374 1075 q 267 1032 315 1032 q 189 1053 218 1032 q 160 1124 160 1075 "},"ů":{"ha":506,"x_min":8,"x_max":497,"o":"m 497 0 l 497 708 l 261 708 l 261 75 q 251 68 257 68 q 244 79 244 68 l 244 708 l 8 708 l 8 168 q 46 28 8 71 q 135 -14 83 -14 q 199 4 171 -14 q 260 61 228 22 l 261 61 l 261 0 l 497 0 m 131 860 q 163 782 131 807 q 250 757 194 757 q 338 782 306 757 q 369 860 369 807 q 337 937 369 913 q 249 961 304 961 q 163 937 194 961 q 131 860 131 913 m 143 860 q 172 928 143 907 q 249 950 200 950 q 328 928 299 950 q 357 860 357 906 q 328 790 357 811 q 250 768 299 768 q 172 790 201 768 q 143 860 143 811 "},"Ű":{"ha":533,"x_min":8,"x_max":525,"o":"m 258 972 l 8 972 l 8 244 q 73 52 8 118 q 263 -14 138 -14 q 457 53 389 -14 q 525 244 525 119 l 525 972 l 275 972 l 275 17 q 267 -6 275 -6 q 258 17 258 -6 l 258 972 m 169 1028 l 178 1028 l 292 1218 l 153 1218 l 169 1028 m 326 1028 l 335 1028 l 449 1218 l 310 1218 l 326 1028 "},"ű":{"ha":506,"x_min":8,"x_max":497,"o":"m 497 0 l 497 708 l 261 708 l 261 75 q 251 68 257 68 q 244 79 244 68 l 244 708 l 8 708 l 8 168 q 46 28 8 71 q 135 -14 83 -14 q 199 4 171 -14 q 260 61 228 22 l 261 61 l 261 0 l 497 0 m 153 764 l 161 764 l 275 954 l 136 954 l 153 764 m 310 764 l 318 764 l 432 954 l 293 954 l 310 764 "},"Ų":{"ha":533,"x_min":8,"x_max":525,"o":"m 258 972 l 8 972 l 8 244 q 73 52 8 118 q 263 -14 138 -14 q 457 53 389 -14 q 525 244 525 119 l 525 972 l 275 972 l 275 17 q 267 -6 275 -6 q 258 17 258 -6 l 258 972 m 364 7 q 264 -7 307 7 q 192 -43 221 -21 q 148 -93 163 -65 q 133 -147 133 -121 q 165 -220 133 -189 q 264 -251 197 -251 q 367 -233 311 -251 l 367 -226 q 332 -231 349 -231 q 258 -199 283 -231 q 233 -126 233 -167 q 242 -82 233 -104 q 266 -42 250 -60 q 306 -13 282 -25 q 364 0 331 -1 l 364 7 "},"ų":{"ha":506,"x_min":8,"x_max":499,"o":"m 497 0 l 497 708 l 261 708 l 261 75 q 251 68 257 68 q 244 79 244 68 l 244 708 l 8 708 l 8 168 q 46 28 8 71 q 135 -14 83 -14 q 199 4 171 -14 q 260 61 228 22 l 261 61 l 261 0 l 497 0 m 496 7 q 396 -7 439 7 q 324 -43 353 -21 q 280 -93 294 -65 q 265 -147 265 -121 q 297 -220 265 -189 q 396 -251 329 -251 q 499 -233 443 -251 l 499 -226 q 464 -231 481 -231 q 390 -199 415 -231 q 365 -126 365 -167 q 374 -82 365 -104 q 398 -42 382 -60 q 438 -13 414 -25 q 496 0 463 -1 l 496 7 "},"Ŵ":{"ha":753,"x_min":4,"x_max":749,"o":"m 254 972 l 4 972 l 94 0 l 292 0 l 375 901 l 378 901 l 461 0 l 658 0 l 749 972 l 738 972 l 681 364 l 678 364 l 621 972 l 371 972 l 314 364 l 311 364 l 254 972 m 343 1032 l 351 1032 l 481 1068 l 483 1068 l 613 1032 l 621 1032 l 486 1222 l 478 1222 l 343 1032 "},"ŵ":{"ha":692,"x_min":6,"x_max":686,"o":"m 242 708 l 6 708 l 88 0 l 268 0 l 344 660 l 347 660 l 424 0 l 604 0 l 686 708 l 678 708 l 629 289 l 626 289 l 578 708 l 342 708 l 293 289 l 290 289 l 242 708 m 317 768 l 325 768 l 454 804 l 457 804 l 586 768 l 594 768 l 460 958 l 451 958 l 317 768 "},"Ŷ":{"ha":407,"x_min":4,"x_max":403,"o":"m 253 972 l 4 972 l 78 397 l 78 0 l 329 0 l 329 397 l 403 972 l 392 972 l 326 461 l 324 461 l 253 972 m 71 1032 l 79 1032 l 208 1068 l 211 1068 l 340 1032 l 349 1032 l 214 1222 l 206 1222 l 71 1032 "},"ŷ":{"ha":506,"x_min":8,"x_max":497,"o":"m 497 -81 l 497 708 l 261 708 l 261 75 q 251 68 257 68 q 244 79 244 68 l 244 708 l 8 708 l 8 168 q 46 28 8 71 q 135 -14 83 -14 q 199 4 171 -14 q 260 61 228 22 l 261 61 l 261 -258 q 253 -283 261 -283 q 244 -261 244 -283 l 244 -36 l 8 -36 l 8 -81 q 72 -236 8 -181 q 254 -292 136 -292 q 435 -237 372 -292 q 497 -81 497 -182 m 110 768 l 118 768 l 247 804 l 250 804 l 379 768 l 388 768 l 253 958 l 244 958 l 110 768 "},"Ź":{"ha":468,"x_min":4,"x_max":464,"o":"m 450 972 l 18 972 l 18 964 l 197 964 l 199 961 l 4 8 l 4 0 l 464 0 l 464 8 l 257 8 l 256 11 l 450 964 l 450 972 m 199 1028 l 207 1028 l 347 1218 l 167 1218 l 199 1028 "},"ź":{"ha":449,"x_min":6,"x_max":443,"o":"m 6 0 l 443 0 l 443 8 l 247 8 l 246 11 l 425 700 l 425 708 l 25 708 l 25 700 l 185 700 l 186 697 l 6 8 l 6 0 m 189 763 l 197 763 l 338 953 l 157 953 l 189 763 "},"Ż":{"ha":468,"x_min":4,"x_max":464,"o":"m 450 972 l 18 972 l 18 964 l 197 964 l 199 961 l 4 8 l 4 0 l 464 0 l 464 8 l 257 8 l 256 11 l 450 964 l 450 972 m 136 1124 q 157 1048 136 1075 q 235 1021 178 1021 q 313 1048 292 1021 q 333 1122 333 1075 q 312 1197 333 1169 q 233 1225 290 1225 q 156 1198 176 1225 q 136 1124 136 1171 "},"ż":{"ha":449,"x_min":6,"x_max":443,"o":"m 6 0 l 443 0 l 443 8 l 247 8 l 246 11 l 425 700 l 425 708 l 25 708 l 25 700 l 185 700 l 186 697 l 6 8 l 6 0 m 126 858 q 147 783 126 810 q 225 756 168 756 q 303 783 282 756 q 324 857 324 810 q 302 932 324 904 q 224 960 281 960 q 147 933 167 960 q 126 858 126 906 "},"ſ":{"ha":675,"x_min":8,"x_max":667,"o":"m 8 972 l 8 0 l 667 0 l 667 972 l 8 972 m 338 543 l 119 903 l 556 903 l 338 543 m 78 115 l 78 857 l 303 486 l 78 115 m 597 115 l 372 486 l 597 857 l 597 115 m 119 69 l 338 429 l 556 69 l 119 69 "},"̦":{"ha":219,"x_min":8,"x_max":211,"o":"m 22 -14 l 8 -204 l 40 -204 l 211 -14 l 22 -14 "},"ȷ":{"ha":254,"x_min":-56,"x_max":244,"o":"m 244 -60 l 244 708 l 8 708 l 8 -187 q 8 -217 8 -201 q 3 -244 7 -232 q -10 -265 -1 -257 q -36 -272 -19 -272 q -45 -272 -40 -272 q -56 -271 -50 -272 l -56 -279 q 10 -288 -21 -285 q 68 -292 40 -292 q 142 -281 110 -292 q 198 -245 175 -271 q 233 -174 221 -219 q 244 -60 244 -129 "}}}
